<svg width="13" height="13" viewBox="0 0 13 13" fill="none" xmlns="http://www.w3.org/2000/svg">
<path d="M3.9 11.7H1.95C1.77761 11.7 1.61228 11.6315 1.49038 11.5096C1.36848 11.3877 1.3 11.2224 1.3 11.05V9.1C1.3 8.92761 1.23152 8.76228 1.10962 8.64038C0.987721 8.51848 0.822391 8.45 0.65 8.45C0.477609 8.45 0.312279 8.51848 0.190381 8.64038C0.0684819 8.76228 0 8.92761 0 9.1V11.05C0 11.5672 0.205446 12.0632 0.571142 12.4289C0.936838 12.7946 1.43283 13 1.95 13H3.9C4.07239 13 4.23772 12.9315 4.35962 12.8096C4.48152 12.6877 4.55 12.5224 4.55 12.35C4.55 12.1776 4.48152 12.0123 4.35962 11.8904C4.23772 11.7685 4.07239 11.7 3.9 11.7ZM0.65 4.55C0.822391 4.55 0.987721 4.48152 1.10962 4.35962C1.23152 4.23772 1.3 4.07239 1.3 3.9V1.95C1.3 1.77761 1.36848 1.61228 1.49038 1.49038C1.61228 1.36848 1.77761 1.3 1.95 1.3H3.9C4.07239 1.3 4.23772 1.23152 4.35962 1.10962C4.48152 0.987721 4.55 0.822391 4.55 0.65C4.55 0.477609 4.48152 0.312279 4.35962 0.190381C4.23772 0.0684819 4.07239 0 3.9 0H1.95C1.43283 0 0.936838 0.205446 0.571142 0.571142C0.205446 0.936838 0 1.43283 0 1.95V3.9C0 4.07239 0.0684819 4.23772 0.190381 4.35962C0.312279 4.48152 0.477609 4.55 0.65 4.55ZM11.05 0H9.1C8.92761 0 8.76228 0.0684819 8.64038 0.190381C8.51848 0.312279 8.45 0.477609 8.45 0.65C8.45 0.822391 8.51848 0.987721 8.64038 1.10962C8.76228 1.23152 8.92761 1.3 9.1 1.3H11.05C11.2224 1.3 11.3877 1.36848 11.5096 1.49038C11.6315 1.61228 11.7 1.77761 11.7 1.95V3.9C11.7 4.07239 11.7685 4.23772 11.8904 4.35962C12.0123 4.48152 12.1776 4.55 12.35 4.55C12.5224 4.55 12.6877 4.48152 12.8096 4.35962C12.9315 4.23772 13 4.07239 13 3.9V1.95C13 1.43283 12.7946 0.936838 12.4289 0.571142C12.0632 0.205446 11.5672 0 11.05 0ZM9.1 6.5C9.1 6.32761 9.03152 6.16228 8.90962 6.04038C8.78772 5.91848 8.62239 5.85 8.45 5.85H7.15V4.55C7.15 4.37761 7.08152 4.21228 6.95962 4.09038C6.83772 3.96848 6.67239 3.9 6.5 3.9C6.32761 3.9 6.16228 3.96848 6.04038 4.09038C5.91848 4.21228 5.85 4.37761 5.85 4.55V5.85H4.55C4.37761 5.85 4.21228 5.91848 4.09038 6.04038C3.96848 6.16228 3.9 6.32761 3.9 6.5C3.9 6.67239 3.96848 6.83772 4.09038 6.95962C4.21228 7.08152 4.37761 7.15 4.55 7.15H5.85V8.45C5.85 8.62239 5.91848 8.78772 6.04038 8.90962C6.16228 9.03152 6.32761 9.1 6.5 9.1C6.67239 9.1 6.83772 9.03152 6.95962 8.90962C7.08152 8.78772 7.15 8.62239 7.15 8.45V7.15H8.45C8.62239 7.15 8.78772 7.08152 8.90962 6.95962C9.03152 6.83772 9.1 6.67239 9.1 6.5ZM12.35 8.45C12.1776 8.45 12.0123 8.51848 11.8904 8.64038C11.7685 8.76228 11.7 8.92761 11.7 9.1V11.05C11.7 11.2224 11.6315 11.3877 11.5096 11.5096C11.3877 11.6315 11.2224 11.7 11.05 11.7H9.1C8.92761 11.7 8.76228 11.7685 8.64038 11.8904C8.51848 12.0123 8.45 12.1776 8.45 12.35C8.45 12.5224 8.51848 12.6877 8.64038 12.8096C8.76228 12.9315 8.92761 13 9.1 13H11.05C11.5672 13 12.0632 12.7946 12.4289 12.4289C12.7946 12.0632 13 11.5672 13 11.05V9.1C13 8.92761 12.9315 8.76228 12.8096 8.64038C12.6877 8.51848 12.5224 8.45 12.35 8.45Z" fill="white"/>
</svg>
