<svg width="24" height="24" viewBox="0 0 24 24" fill="none" xmlns="http://www.w3.org/2000/svg">
<path d="M11.142 20C8.915 20 7.801 20 6.872 19.499C5.942 18.997 5.352 18.079 4.171 16.24L3.49 15.18C2.497 13.634 2 12.86 2 12C2 11.14 2.497 10.366 3.49 8.82L4.17 7.76C5.351 5.922 5.941 5.003 6.871 4.501C7.801 4 8.915 4 11.142 4H13.779C17.654 4 19.592 4 20.796 5.172C22 6.343 22 8.229 22 12C22 15.771 22 17.657 20.796 18.828C19.592 20 17.654 20 13.78 20H11.142Z" stroke="black" stroke-width="1.5"/>
<path d="M15.5 9.5L10.5 14.5M10.5 9.5L15.5 14.5" stroke="black" stroke-width="1.5" stroke-linecap="round"/>
</svg>
