<svg width="22" height="11" viewBox="0 0 22 11" fill="none" xmlns="http://www.w3.org/2000/svg">
<path fill-rule="evenodd" clip-rule="evenodd" d="M0.383875 0.504083C0.795837 0.209824 1.36834 0.305242 1.6626 0.717203C4.62554 4.86532 7.74376 6.75001 11 6.75001C14.2563 6.75001 17.3745 4.86532 20.3374 0.717203C20.6317 0.305242 21.2042 0.209824 21.6161 0.504083C22.0281 0.798341 22.1235 1.37085 21.8293 1.78281C21.0152 2.92245 20.1707 3.92741 19.2954 4.79115L20.0699 6.34006C20.2963 6.79287 20.1128 7.34349 19.66 7.5699C19.2071 7.7963 18.6565 7.61276 18.4301 7.15995L17.8739 6.04753C16.9338 6.78443 15.9605 7.36623 14.9538 7.78567L15.3268 9.27768C15.4496 9.76883 15.151 10.2665 14.6598 10.3893C14.1687 10.5121 13.671 10.2135 13.5482 9.72233L13.2033 8.34249C12.4848 8.50227 11.7504 8.58334 11 8.58334C10.1741 8.58334 9.36752 8.48513 8.58026 8.29185L8.22264 9.72233C8.09985 10.2135 7.60216 10.5121 7.11102 10.3893C6.61987 10.2665 6.32126 9.76883 6.44405 9.27768L6.83923 7.69694C5.90592 7.28557 5.00164 6.73381 4.12611 6.04753L3.5699 7.15995C3.34349 7.61276 2.79288 7.7963 2.34006 7.5699C1.88725 7.34349 1.70371 6.79287 1.93012 6.34006L2.70457 4.79115C1.82929 3.92741 0.984784 2.92245 0.170754 1.78281C-0.123504 1.37085 -0.0280863 0.798341 0.383875 0.504083Z" fill="#1A1817"/>
</svg>
