<svg width="11" height="13" viewBox="0 0 11 13" fill="none" xmlns="http://www.w3.org/2000/svg">
<path d="M10.2359 4.64357L10.0048 10.981C9.98515 11.5238 9.73287 12.0382 9.30152 12.4152C8.87017 12.7921 8.29372 13.0019 7.69451 13H3.30491C2.70609 13.0019 2.12997 12.7924 1.69869 12.4159C1.2674 12.0394 1.01486 11.5255 0.994592 10.9831L0.76356 4.64357C0.758505 4.50474 0.814509 4.36978 0.919252 4.26837C1.02399 4.16696 1.1689 4.10742 1.32208 4.10284C1.47526 4.09826 1.62418 4.14901 1.73607 4.24394C1.84796 4.33887 1.91366 4.47019 1.91872 4.60902L2.14975 10.948C2.16125 11.2187 2.28802 11.4747 2.50342 11.6624C2.71882 11.8501 3.00609 11.9549 3.30491 11.9546H7.69451C7.99371 11.9548 8.28132 11.8498 8.49678 11.6616C8.71224 11.4735 8.83875 11.2169 8.84967 10.946L9.0807 4.60902C9.08576 4.47019 9.15146 4.33887 9.26335 4.24394C9.37524 4.14901 9.52416 4.09826 9.67734 4.10284C9.83053 4.10742 9.97543 4.16696 10.0802 4.26837C10.1849 4.36978 10.2409 4.50474 10.2359 4.64357ZM11 2.53457C11 2.6734 10.9391 2.80654 10.8308 2.90471C10.7225 3.00287 10.5756 3.05802 10.4224 3.05802H0.577579C0.424396 3.05802 0.277486 3.00287 0.169169 2.90471C0.0608518 2.80654 0 2.6734 0 2.53457C0 2.39574 0.0608518 2.2626 0.169169 2.16443C0.277486 2.06627 0.424396 2.01112 0.577579 2.01112H2.36808C2.55108 2.01156 2.72772 1.95029 2.86363 1.83921C2.99953 1.72814 3.08498 1.57521 3.10333 1.41019C3.14596 1.02309 3.34607 0.664232 3.66468 0.40354C3.98329 0.142848 4.39758 -0.00100676 4.82683 5.3041e-06H6.17259C6.60184 -0.00100676 7.01613 0.142848 7.33474 0.40354C7.65335 0.664232 7.85347 1.02309 7.89609 1.41019C7.91445 1.57521 7.99989 1.72814 8.1358 1.83921C8.2717 1.95029 8.44834 2.01156 8.63135 2.01112H10.4218C10.575 2.01112 10.7219 2.06627 10.8303 2.16443C10.9386 2.2626 10.9994 2.39574 10.9994 2.53457H11ZM4.10601 2.01112H6.89457C6.81867 1.85394 6.76903 1.6874 6.74728 1.51698C6.73297 1.38795 6.66633 1.26833 6.56026 1.18129C6.45419 1.09425 6.31625 1.04599 6.17317 1.04587H4.82741C4.68432 1.04599 4.54638 1.09425 4.44032 1.18129C4.33425 1.26833 4.2676 1.38795 4.25329 1.51698C4.23137 1.68743 4.18211 1.85397 4.10601 2.01112ZM4.68763 9.94197V5.48476C4.68763 5.34593 4.62678 5.21279 4.51847 5.11462C4.41015 5.01645 4.26324 4.9613 4.11005 4.9613C3.95687 4.9613 3.80996 5.01645 3.70164 5.11462C3.59333 5.21279 3.53248 5.34593 3.53248 5.48476V9.94406C3.53248 10.0829 3.59333 10.216 3.70164 10.3142C3.80996 10.4124 3.95687 10.4675 4.11005 10.4675C4.26324 10.4675 4.41015 10.4124 4.51847 10.3142C4.62678 10.216 4.68763 10.0829 4.68763 9.94406V9.94197ZM7.4681 9.94197V5.48476C7.4681 5.34593 7.40725 5.21279 7.29893 5.11462C7.19062 5.01645 7.04371 4.9613 6.89052 4.9613C6.73734 4.9613 6.59043 5.01645 6.48211 5.11462C6.3738 5.21279 6.31294 5.34593 6.31294 5.48476V9.94406C6.31294 10.0829 6.3738 10.216 6.48211 10.3142C6.59043 10.4124 6.73734 10.4675 6.89052 10.4675C7.04371 10.4675 7.19062 10.4124 7.29893 10.3142C7.40725 10.216 7.4681 10.0829 7.4681 9.94406V9.94197Z" fill="white"/>
</svg>
