<svg width="14" height="10" viewBox="0 0 14 10" fill="none" xmlns="http://www.w3.org/2000/svg">
<path d="M1.4 3.80707H0.9312V4.62597H1.4V7.95623H3.3532C3.5296 8.62077 4.1226 9.11149 4.8268 9.11149C5.531 9.11149 6.124 8.62077 6.3006 7.95623H10.1598C10.3362 8.62077 10.9292 9.11149 11.6334 9.11149C12.3376 9.11149 12.9306 8.62077 13.107 7.95623H14V3.9729L12.7746 1.46399H9.8878V0H1.4V1.75982H0V2.57872H1.4V3.80707ZM4.8268 8.29259C4.425 8.29259 4.0982 7.95807 4.0982 7.54678C4.0982 7.13549 4.425 6.80097 4.8268 6.80097C5.2286 6.80097 5.5554 7.13549 5.5554 7.54678C5.5554 7.95807 5.2286 8.29259 4.8268 8.29259ZM11.6334 8.29259C11.2316 8.29259 10.9048 7.95807 10.9048 7.54678C10.9048 7.13549 11.2316 6.80097 11.6334 6.80097C12.035 6.80097 12.362 7.13549 12.362 7.54678C12.362 7.95807 12.035 8.29259 11.6334 8.29259ZM12.9528 3.66008H11.4V2.28289H12.28L12.9528 3.66008ZM10.6 2.28289V4.47898H13.2V7.13733H13.107C12.9306 6.47279 12.3376 5.98207 11.6334 5.98207C10.9292 5.98207 10.3362 6.47279 10.1596 7.13733H9.888V2.28289H10.6ZM2.2 0.8189H9.088V7.13733H6.3004C6.1238 6.47279 5.531 5.98207 4.8266 5.98207C4.1222 5.98207 3.5294 6.47279 3.353 7.13733H2.2V4.62597H3.8688V3.80707H2.2V2.57872H2.9376V1.75982H2.2V0.8189ZM0.4 9.1811H3.3376V10H0.4V9.1811Z" fill="white"/>
</svg>
