<svg width="17" height="17" viewBox="0 0 17 17" fill="none" xmlns="http://www.w3.org/2000/svg">
<path d="M15.2534 8.03276C15.0405 8.03276 14.8363 8.11734 14.6857 8.2679C14.5352 8.41845 14.4506 8.62265 14.4506 8.83557V13.6524C14.4506 13.8654 14.366 14.0695 14.2155 14.2201C14.0649 14.3707 13.8607 14.4552 13.6478 14.4552H2.40843C2.19551 14.4552 1.99131 14.3707 1.84076 14.2201C1.6902 14.0695 1.60562 13.8654 1.60562 13.6524V2.41309C1.60562 2.20017 1.6902 1.99597 1.84076 1.84541C1.99131 1.69486 2.19551 1.61028 2.40843 1.61028H7.22529C7.43821 1.61028 7.64241 1.52569 7.79297 1.37514C7.94352 1.22458 8.0281 1.02038 8.0281 0.807465C8.0281 0.594547 7.94352 0.390349 7.79297 0.239793C7.64241 0.0892365 7.43821 0.00465497 7.22529 0.00465497H2.40843C1.76968 0.00465497 1.15708 0.2584 0.705413 0.710068C0.253745 1.16174 0 1.77433 0 2.41309V13.6524C0 14.2912 0.253745 14.9038 0.705413 15.3555C1.15708 15.8071 1.76968 16.0609 2.40843 16.0609H13.6478C14.2865 16.0609 14.8991 15.8071 15.3508 15.3555C15.8025 14.9038 16.0562 14.2912 16.0562 13.6524V8.83557C16.0562 8.62265 15.9716 8.41845 15.8211 8.2679C15.6705 8.11734 15.4663 8.03276 15.2534 8.03276ZM3.21124 8.6429V12.0468C3.21124 12.2597 3.29582 12.4639 3.44638 12.6145C3.59694 12.765 3.80113 12.8496 4.01405 12.8496H7.41797C7.52362 12.8502 7.62836 12.83 7.72617 12.79C7.82398 12.7501 7.91295 12.6912 7.98796 12.6168L13.5434 7.05333L15.8234 4.82152C15.8986 4.74689 15.9584 4.65809 15.9991 4.56026C16.0399 4.46243 16.0609 4.3575 16.0609 4.25152C16.0609 4.14554 16.0399 4.04061 15.9991 3.94278C15.9584 3.84495 15.8986 3.75616 15.8234 3.68153L12.4195 0.23747C12.3448 0.162224 12.2561 0.102499 12.1582 0.0617417C12.0604 0.0209841 11.9555 0 11.8495 0C11.7435 0 11.6386 0.0209841 11.5407 0.0617417C11.4429 0.102499 11.3541 0.162224 11.2795 0.23747L9.01556 2.50942L3.44406 8.0729C3.36965 8.14791 3.31078 8.23688 3.27083 8.33469C3.23088 8.4325 3.21063 8.53724 3.21124 8.6429ZM11.8495 1.93943L14.1214 4.21138L12.9814 5.35137L10.7095 3.07942L11.8495 1.93943ZM4.81686 8.97205L9.57753 4.21138L11.8495 6.48334L7.08882 11.244H4.81686V8.97205Z" fill="black"/>
</svg>
