<svg width="17" height="17" viewBox="0 0 17 17" fill="none" xmlns="http://www.w3.org/2000/svg">
<path fill-rule="evenodd" clip-rule="evenodd" d="M5.625 4.125C5.625 2.26104 7.13604 0.75 9 0.75C10.864 0.75 12.375 2.26104 12.375 4.125C12.375 5.98896 10.864 7.5 9 7.5C7.13604 7.5 5.625 5.98896 5.625 4.125ZM9 2.25C7.96447 2.25 7.125 3.08947 7.125 4.125C7.125 5.16053 7.96447 6 9 6C10.0355 6 10.875 5.16053 10.875 4.125C10.875 3.08947 10.0355 2.25 9 2.25Z" fill="black"/>
<path d="M8.25 10.125C4.85081 10.125 2.25 12.5561 2.25 15.375C2.25 15.7892 1.91421 16.125 1.5 16.125C1.08579 16.125 0.75 15.7892 0.75 15.375C0.75 11.5665 4.19336 8.625 8.25 8.625C8.66421 8.625 9 8.96079 9 9.375C9 9.78921 8.66421 10.125 8.25 10.125Z" fill="black"/>
<path fill-rule="evenodd" clip-rule="evenodd" d="M14.4053 9.96967C14.1124 9.67678 13.6376 9.67678 13.3447 9.96967L9.59467 13.7197C9.45402 13.8603 9.375 14.0511 9.375 14.25V15.75C9.375 16.1642 9.71079 16.5 10.125 16.5H11.625C11.8239 16.5 12.0147 16.421 12.1553 16.2803L15.9053 12.5303C16.1982 12.2374 16.1982 11.7626 15.9053 11.4697L14.4053 9.96967ZM10.875 15V14.5607L13.875 11.5607L14.3143 12L11.3143 15H10.875Z" fill="black"/>
<path fill-rule="evenodd" clip-rule="evenodd" d="M5.625 4.125C5.625 2.26104 7.13604 0.75 9 0.75C10.864 0.75 12.375 2.26104 12.375 4.125C12.375 5.98896 10.864 7.5 9 7.5C7.13604 7.5 5.625 5.98896 5.625 4.125ZM9 2.25C7.96447 2.25 7.125 3.08947 7.125 4.125C7.125 5.16053 7.96447 6 9 6C10.0355 6 10.875 5.16053 10.875 4.125C10.875 3.08947 10.0355 2.25 9 2.25Z" stroke="black" stroke-width="0.3" stroke-linecap="round" stroke-linejoin="round"/>
<path d="M8.25 10.125C4.85081 10.125 2.25 12.5561 2.25 15.375C2.25 15.7892 1.91421 16.125 1.5 16.125C1.08579 16.125 0.75 15.7892 0.75 15.375C0.75 11.5665 4.19336 8.625 8.25 8.625C8.66421 8.625 9 8.96079 9 9.375C9 9.78921 8.66421 10.125 8.25 10.125Z" stroke="black" stroke-width="0.3" stroke-linecap="round" stroke-linejoin="round"/>
<path fill-rule="evenodd" clip-rule="evenodd" d="M14.4053 9.96967C14.1124 9.67678 13.6376 9.67678 13.3447 9.96967L9.59467 13.7197C9.45402 13.8603 9.375 14.0511 9.375 14.25V15.75C9.375 16.1642 9.71079 16.5 10.125 16.5H11.625C11.8239 16.5 12.0147 16.421 12.1553 16.2803L15.9053 12.5303C16.1982 12.2374 16.1982 11.7626 15.9053 11.4697L14.4053 9.96967ZM10.875 15V14.5607L13.875 11.5607L14.3143 12L11.3143 15H10.875Z" stroke="black" stroke-width="0.3" stroke-linecap="round" stroke-linejoin="round"/>
</svg>
