<svg width="20" height="20" viewBox="0 0 20 20" fill="none" xmlns="http://www.w3.org/2000/svg">
<path fill-rule="evenodd" clip-rule="evenodd" d="M12.5354 1.80761C13.707 0.636039 15.6065 0.636039 16.778 1.80761L18.1923 3.22183C19.3638 4.3934 19.3638 6.29289 18.1923 7.46447L6.87854 18.7782C6.72555 18.9312 6.52705 19.0304 6.31286 19.061L1.36311 19.7681C1.05152 19.8126 0.73715 19.7078 0.514583 19.4853C0.292016 19.2627 0.187226 18.9483 0.23174 18.6368L0.938847 13.687C0.969446 13.4728 1.06869 13.2743 1.22169 13.1213L12.5354 1.80761ZM15.3638 3.22183C14.9733 2.8313 14.3401 2.8313 13.9496 3.22183L2.87161 14.2998L2.4002 17.5997L5.70003 17.1283L16.778 6.05025C17.1686 5.65973 17.1686 5.02656 16.778 4.63604L15.3638 3.22183Z" fill="black"/>
</svg>
