<svg width="24" height="11" viewBox="0 0 24 11" fill="none" xmlns="http://www.w3.org/2000/svg">
<path fill-rule="evenodd" clip-rule="evenodd" d="M22.1863 8.58124C22.5073 9.03065 23.1318 9.13474 23.5812 8.81373C24.0306 8.49272 24.1347 7.86817 23.8137 7.41876C20.3794 2.61065 16.4477 0 12 0C7.55226 0 3.62062 2.61065 0.186252 7.41876C-0.134756 7.86817 -0.0306647 8.49272 0.418749 8.81373C0.86816 9.13474 1.49271 9.03065 1.81372 8.58124C5.04602 4.05602 8.44771 2 12 2C15.5523 2 18.954 4.05602 22.1863 8.58124ZM15 8C15 9.65685 13.6568 11 12 11C10.3431 11 8.99999 9.65685 8.99999 8C8.99999 6.34315 10.3431 5 12 5C13.6568 5 15 6.34315 15 8Z" fill="#1A1817"/>
</svg>
