<svg width="17" height="19" viewBox="0 0 17 19" fill="none" xmlns="http://www.w3.org/2000/svg">
<path fill-rule="evenodd" clip-rule="evenodd" d="M0.620089 4.16645C2.63284 2.20218 5.40795 0.989586 8.46771 0.989586C11.5456 0.989586 14.3354 2.21658 16.3509 4.2014C16.6625 4.50819 16.6663 5.00943 16.3595 5.32096C16.0528 5.63249 15.5515 5.63634 15.24 5.32955C13.5121 3.62796 11.118 2.57292 8.46771 2.57292C5.83301 2.57292 3.45152 3.61559 1.72594 5.2996C1.41303 5.60497 0.911811 5.59886 0.606438 5.28595C0.301066 4.97304 0.307177 4.47182 0.620089 4.16645ZM8.49993 5.57464C5.14785 5.57464 2.43048 8.29202 2.43048 11.6441V11.6669C2.43048 12.1041 2.07604 12.4586 1.63882 12.4586C1.20159 12.4586 0.847149 12.1041 0.847149 11.6669V11.6441C0.847149 7.41758 4.27339 3.99131 8.49993 3.99131C8.93716 3.99131 9.2916 4.34575 9.2916 4.78298C9.2916 5.2202 8.93716 5.57464 8.49993 5.57464ZM10.6172 5.06777C10.7982 4.66978 11.2676 4.49392 11.6656 4.67495C14.3109 5.87828 16.1527 8.54525 16.1527 11.6441V11.6492C16.1527 12.0864 15.7982 12.4409 15.361 12.4409C14.9238 12.4409 14.5693 12.0864 14.5693 11.6492V11.6441C14.5693 9.18856 13.1111 7.07197 11.01 6.11618C10.612 5.93514 10.4361 5.46575 10.6172 5.06777ZM8.49989 8.57641C6.80564 8.57641 5.43219 9.94986 5.43219 11.6441V14.6458C5.43219 15.0831 5.07774 15.4375 4.64052 15.4375C4.20329 15.4375 3.84885 15.0831 3.84885 14.6458V11.6441C3.84885 9.0754 5.93118 6.99307 8.49989 6.99307C11.0686 6.99307 13.1509 9.0754 13.1509 11.6441V14.6458C13.1509 15.0831 12.7965 15.4375 12.3593 15.4375C11.922 15.4375 11.5676 15.0831 11.5676 14.6458V11.6441C11.5676 9.94986 10.1942 8.57641 8.49989 8.57641ZM8.49989 11.5781C8.22664 11.5781 8.0051 11.7997 8.0051 12.0729V15.5151C8.0051 16.5009 7.32201 17.6923 6.12706 17.9873C5.70258 18.0921 5.27351 17.833 5.16872 17.4085C5.06392 16.984 5.32308 16.555 5.74756 16.4502C6.10657 16.3615 6.42177 15.9144 6.42177 15.5151V12.0729C6.42177 10.9252 7.35219 9.99479 8.49989 9.99479C9.64766 9.99479 10.578 10.9252 10.578 12.0729V15.5151C10.578 15.9523 10.2236 16.3068 9.78635 16.3068C9.34913 16.3068 8.99469 15.9523 8.99469 15.5151V12.0729C8.99469 11.7996 8.77317 11.5781 8.49989 11.5781Z" fill="black" stroke="black" stroke-width="0.3" stroke-linecap="round" stroke-linejoin="round"/>
</svg>
