<svg width="22" height="22" viewBox="0 0 22 22" fill="none" xmlns="http://www.w3.org/2000/svg">
<path d="M21.2318 8.88803C20.9227 8.51694 20.5359 8.21822 20.0987 8.01295C19.6615 7.80768 19.1846 7.70086 18.7016 7.70003H13.6852L14.3012 6.12704C14.5575 5.43831 14.6428 4.6977 14.5499 3.96875C14.457 3.2398 14.1887 2.54426 13.7679 1.9418C13.3471 1.33933 12.7864 0.847923 12.134 0.509725C11.4815 0.171527 10.7568 -0.00336536 10.0219 4.90503e-05C9.81026 0.000490547 9.60326 0.0619517 9.4257 0.177064C9.24814 0.292176 9.10755 0.456053 9.02078 0.649048L5.88551 7.70003H3.30029C2.425 7.70003 1.58556 8.04771 0.966632 8.66658C0.347708 9.28545 0 10.1248 0 11V18.7C0 19.5752 0.347708 20.4146 0.966632 21.0335C1.58556 21.6523 2.425 22 3.30029 22H17.3045C18.0766 21.9997 18.8241 21.7288 19.417 21.2344C20.01 20.74 20.4108 20.0534 20.5498 19.294L21.9469 11.594C22.0333 11.1181 22.0141 10.6291 21.8905 10.1615C21.7669 9.69386 21.5421 9.25912 21.2318 8.88803ZM5.50048 19.8H3.30029C3.00852 19.8 2.72871 19.6841 2.5224 19.4778C2.31609 19.2715 2.20019 18.9917 2.20019 18.7V11C2.20019 10.7083 2.31609 10.4285 2.5224 10.2222C2.72871 10.0159 3.00852 9.90003 3.30029 9.90003H5.50048V19.8ZM19.8017 11.198L18.4046 18.898C18.3577 19.1543 18.2214 19.3856 18.02 19.5507C17.8185 19.7159 17.565 19.8043 17.3045 19.8H7.70067V9.03103L10.6929 2.29904C11.0009 2.38883 11.287 2.54149 11.533 2.74738C11.7791 2.95328 11.9797 3.20794 12.1224 3.49528C12.265 3.78263 12.3466 4.09643 12.3618 4.41687C12.3771 4.73731 12.3258 5.05744 12.2111 5.35704L11.628 6.93003C11.5038 7.26252 11.4618 7.62012 11.5058 7.97232C11.5497 8.32452 11.6782 8.66086 11.8803 8.95264C12.0824 9.24443 12.3521 9.48298 12.6664 9.64795C12.9807 9.81292 13.3302 9.89941 13.6852 9.90003H18.7016C18.8632 9.89977 19.0229 9.93511 19.1693 10.0036C19.3157 10.072 19.4453 10.1719 19.5487 10.296C19.6547 10.4185 19.7323 10.5628 19.776 10.7187C19.8198 10.8747 19.8285 11.0383 19.8017 11.198Z" fill="#2F4156"/>
</svg>
