<svg width="14" height="16" viewBox="0 0 14 16" fill="none" xmlns="http://www.w3.org/2000/svg">
<path fill-rule="evenodd" clip-rule="evenodd" d="M1 6.99258C1.01126 3.67173 3.70666 0.988788 7.02035 1.00004C10.334 1.01135 13.0112 3.71258 13 7.03344V7.10153C12.9592 9.2602 11.7564 11.2554 10.2819 12.8148C9.43867 13.6924 8.49697 14.4693 7.47561 15.1301C7.20251 15.3669 6.79742 15.3669 6.52432 15.1301C5.00172 14.1369 3.66538 12.883 2.57643 11.4257C1.60588 10.1549 1.05483 8.61239 1 7.01301V6.99258Z" stroke="white" stroke-linecap="round" stroke-linejoin="round"/>
<path d="M6.99974 9.03548C8.06183 9.03548 8.92282 8.17262 8.92282 7.10824C8.92282 6.04386 8.06183 5.181 6.99974 5.181C5.93765 5.181 5.07666 6.04386 5.07666 7.10824C5.07666 8.17262 5.93765 9.03548 6.99974 9.03548Z" stroke="white" stroke-linecap="round" stroke-linejoin="round"/>
</svg>
