<svg width="322" height="79" viewBox="0 0 322 79" fill="none" xmlns="http://www.w3.org/2000/svg">
<g clip-path="url(#clip0_14_64)">
<path fill-rule="evenodd" clip-rule="evenodd" d="M0.101471 20.9812V43.911C0.101471 47.354 3.26277 50.3179 7.3485 50.3179H314.753C318.908 50.3179 322 47.3447 322 43.911V20.8125C322 19.0635 321.069 17.5819 319.939 16.4673C318.892 15.4348 317.281 14.5742 315.258 14.5742H6.84285C3.31675 14.5742 0.101471 17.5359 0.101471 20.981V20.9812Z" fill="#FF6600"/>
<path fill-rule="evenodd" clip-rule="evenodd" d="M0.000244141 56.725V63.8063C0.000244141 66.9168 3.12696 70.0446 6.23597 70.0446H315.663C318.772 70.0446 321.899 66.9166 321.899 63.8063V56.725C321.899 54.0026 319.756 51.5587 317.274 50.7293C316.463 50.4582 315.164 50.3181 314.146 50.3181H7.75293C3.51369 50.3181 0.000244141 52.8177 0.000244141 56.725Z" fill="#14A23C"/>
<path d="M17.3016 65.0115C16.3122 65.0115 15.4202 64.7963 14.6248 64.3664C13.8297 63.9362 13.2057 63.3397 12.7526 62.5766C12.2996 61.8134 12.0729 60.9601 12.0729 60.0169C12.0729 59.0733 12.2996 58.2202 12.7526 57.4572C13.2057 56.6942 13.8297 56.0974 14.6248 55.6675C15.42 55.2374 16.3122 55.0222 17.3016 55.0222C18.2907 55.0222 19.1829 55.2374 19.9781 55.6675C20.7733 56.0974 21.3972 56.6917 21.8504 57.4503C22.3035 58.2086 22.53 59.0643 22.53 60.0169C22.53 60.9696 22.3035 61.8252 21.8504 62.5836C21.3972 63.342 20.7733 63.9362 19.9781 64.3664C19.1831 64.7963 18.2907 65.0115 17.3016 65.0115ZM17.3016 63.43C17.9487 63.43 18.5311 63.2842 19.0488 62.9929C19.5665 62.7015 19.9734 62.2944 20.2693 61.7719C20.5651 61.2491 20.7129 60.6641 20.7129 60.0167C20.7129 59.3691 20.5651 58.7841 20.2693 58.2616C19.9734 57.7388 19.5667 57.3321 19.0488 57.0406C18.5311 56.7493 17.9485 56.6035 17.3016 56.6035C16.6542 56.6035 16.0718 56.7493 15.5541 57.0406C15.0364 57.3319 14.6295 57.7388 14.3336 58.2616C14.0378 58.7841 13.89 59.3691 13.89 60.0167C13.89 60.6641 14.0378 61.2491 14.3336 61.7719C14.6295 62.2944 15.0362 62.7013 15.5541 62.9929C16.0718 63.2842 16.6544 63.43 17.3016 63.43ZM31.7522 64.8729L29.769 62.0286C29.6857 62.0379 29.5609 62.0425 29.3945 62.0425H27.2032V64.8729H25.4005V55.161H29.3945C30.2359 55.161 30.9686 55.2996 31.5926 55.5772C32.2167 55.8546 32.695 56.2523 33.0279 56.7704C33.3609 57.2882 33.527 57.9034 33.527 58.6156C33.527 59.3463 33.3491 59.9754 32.9933 60.5026C32.6374 61.0297 32.1265 61.4227 31.4608 61.6818L33.6934 64.8729H31.752H31.7522ZM31.7104 58.6156C31.7104 57.996 31.5072 57.5195 31.1002 57.1866C30.6932 56.8535 30.0971 56.687 29.3112 56.687H27.2032V60.558H29.3112C30.0971 60.558 30.6932 60.3893 31.1002 60.0515C31.5072 59.7138 31.7104 59.2354 31.7104 58.6156ZM44.0393 63.3466V64.8729H35.7601V63.6658L41.4737 56.6872H35.8571V55.1612H43.859V56.3681L38.1454 63.3466H44.0393ZM50.821 65.0115C49.4803 65.0115 48.4357 64.6347 47.6869 63.8808C46.9379 63.1268 46.5636 62.0472 46.5636 60.6411V55.161H48.3663V60.5717C48.3663 62.4771 49.1893 63.43 50.8351 63.43C52.4716 63.43 53.2896 62.4771 53.2896 60.5717V55.161H55.0649V60.6411C55.0649 62.0472 54.6927 63.127 53.9483 63.8808C53.2042 64.6347 52.1617 65.0115 50.821 65.0115ZM62.5951 61.4459V64.8729H60.7924V61.4736L56.9785 55.161H58.9062L61.7493 59.8921L64.6198 55.161H66.3951L62.5951 61.4457V61.4459ZM68.392 55.1612H70.1949V64.8731H68.392V55.1612ZM82.399 55.1612V64.8731H80.9151L75.5621 58.2966V64.8731H73.7729V55.1612H75.2567L80.6098 61.7375V55.1612H82.399ZM92.592 59.906H94.2979V63.777C93.7988 64.1746 93.2162 64.4799 92.5507 64.6925C91.8848 64.9054 91.2007 65.0117 90.4979 65.0117C89.5087 65.0117 88.6166 64.7965 87.8214 64.3666C87.0262 63.9365 86.4023 63.3422 85.9491 62.5838C85.4962 61.8254 85.2695 60.9698 85.2695 60.0171C85.2695 59.0645 85.4962 58.2089 85.9491 57.4505C86.4023 56.6919 87.0285 56.0976 87.8283 55.6677C88.6282 55.2376 89.5273 55.0224 90.5257 55.0224C91.3393 55.0224 92.0788 55.1566 92.7447 55.4249C93.4104 55.6932 93.9696 56.0862 94.4225 56.6041L93.2855 57.714C92.5458 56.9741 91.6537 56.6041 90.6088 56.6041C89.9246 56.6041 89.3168 56.7476 88.785 57.034C88.2535 57.3207 87.8374 57.7232 87.5369 58.2411C87.2364 58.759 87.0863 59.351 87.0863 60.0171C87.0863 60.6646 87.2364 61.2472 87.5369 61.7651C87.8374 62.2832 88.2535 62.6901 88.785 62.9861C89.3166 63.2821 89.9201 63.4302 90.5949 63.4302C91.3532 63.4302 92.0189 63.2637 92.592 62.9306V59.906ZM97.626 55.1612H99.4289V64.8731H97.626V55.1612ZM110.551 63.3468V64.8731H102.272V63.666L107.986 56.6875H102.369V55.1614H110.371V56.3683L104.657 63.3468H110.551Z" fill="#FEFEFE"/>
<path d="M208.752 65.3404C208.003 65.3404 207.279 65.234 206.581 65.0212C205.883 64.8085 205.331 64.5265 204.924 64.175L205.548 62.7737C205.946 63.0882 206.433 63.3447 207.011 63.5439C207.589 63.7428 208.169 63.8422 208.752 63.8422C209.473 63.8422 210.011 63.7266 210.367 63.4954C210.723 63.2639 210.901 62.9589 210.901 62.5796C210.901 62.3022 210.802 62.0733 210.603 61.893C210.404 61.7126 210.152 61.5717 209.847 61.4698C209.542 61.3681 209.126 61.2525 208.599 61.123C207.86 60.947 207.261 60.7713 206.803 60.5956C206.346 60.4199 205.953 60.1448 205.625 59.7701C205.296 59.3957 205.132 58.8892 205.132 58.2511C205.132 57.7146 205.278 57.2267 205.569 56.7872C205.86 56.3478 206.299 55.9987 206.886 55.7396C207.474 55.4808 208.193 55.3511 209.043 55.3511C209.635 55.3511 210.217 55.4251 210.79 55.573C211.364 55.7209 211.858 55.9337 212.274 56.2111L211.706 57.6125C211.281 57.3627 210.837 57.1731 210.374 57.0436C209.912 56.914 209.464 56.8495 209.029 56.8495C208.317 56.8495 207.788 56.9697 207.441 57.21C207.095 57.4505 206.922 57.7697 206.922 58.1675C206.922 58.4449 207.021 58.6715 207.22 58.8472C207.419 59.0231 207.67 59.1617 207.975 59.2634C208.281 59.3653 208.697 59.4807 209.224 59.6104C209.945 59.7767 210.536 59.9503 210.999 60.1306C211.461 60.311 211.856 60.5863 212.184 60.9561C212.513 61.3261 212.677 61.8254 212.677 62.4545C212.677 62.991 212.531 63.4766 212.24 63.9114C211.949 64.3461 211.507 64.6929 210.916 64.9518C210.324 65.2108 209.603 65.3404 208.752 65.3404H208.752ZM220.57 62.9543H215.716L214.759 65.2018H212.901L217.269 55.4899H219.045L223.427 65.2018H221.541L220.57 62.9543ZM219.974 61.5392L218.143 57.2937L216.326 61.5392H219.974H219.974ZM230.821 65.202L228.838 62.3577C228.755 62.367 228.63 62.3716 228.464 62.3716H226.272V65.202H224.47V55.4901H228.464C229.305 55.4901 230.038 55.6289 230.662 55.9063C231.286 56.1837 231.764 56.5816 232.097 57.0995C232.43 57.6173 232.596 58.2325 232.596 58.9447C232.596 59.6754 232.418 60.3045 232.062 60.8316C231.707 61.3588 231.196 61.7518 230.53 62.0109L232.763 65.202H230.821H230.821ZM230.78 58.9447C230.78 58.3251 230.576 57.8486 230.169 57.5157C229.762 57.1826 229.166 57.0161 228.38 57.0161H226.272V60.8871H228.38C229.166 60.8871 229.762 60.7184 230.169 60.3806C230.576 60.0429 230.78 59.5644 230.78 58.9447ZM234.416 55.4901H236.219V65.202H234.416V55.4901ZM249.163 60.1517C249.699 60.3275 250.125 60.6211 250.439 61.0327C250.753 61.4443 250.911 61.9554 250.911 62.5659C250.911 63.4074 250.587 64.0573 249.94 64.5153C249.293 64.9731 248.35 65.202 247.111 65.202H242.285V55.4901H246.833C247.98 55.4901 248.863 55.7143 249.482 56.1628C250.102 56.6115 250.411 57.229 250.411 58.015C250.411 58.496 250.3 58.9215 250.078 59.2915C249.856 59.6615 249.551 59.9482 249.163 60.1515L249.163 60.1517ZM244.087 56.9052V59.5828H246.639C247.268 59.5828 247.751 59.4697 248.088 59.2432C248.426 59.0164 248.595 58.6858 248.595 58.2511C248.595 57.8072 248.426 57.4718 248.088 57.2452C247.751 57.0187 247.268 56.9054 246.639 56.9054H244.087V56.9052ZM247 63.7867C248.396 63.7867 249.094 63.3196 249.094 62.3853C249.094 61.4512 248.396 60.9842 247 60.9842H244.087V63.7867H247ZM252.647 55.4901H254.45V65.202H252.647V55.4901ZM264.424 63.6757V65.202H256.145V63.9949L261.858 57.0163H256.242V55.4903H264.243V56.6972L258.53 63.6757H264.424ZM276.398 60.1517C276.934 60.3275 277.359 60.6211 277.673 61.0327C277.988 61.4443 278.145 61.9554 278.145 62.5659C278.145 63.4074 277.821 64.0573 277.174 64.5153C276.527 64.9731 275.584 65.202 274.345 65.202H269.519V55.4901H274.068C275.214 55.4901 276.097 55.7143 276.717 56.1628C277.336 56.6115 277.646 57.229 277.646 58.015C277.646 58.496 277.535 58.9215 277.313 59.2915C277.091 59.6615 276.786 59.9482 276.398 60.1515V60.1517ZM271.322 56.9052V59.5828H273.873C274.502 59.5828 274.985 59.4697 275.323 59.2432C275.66 59.0164 275.829 58.6858 275.829 58.2511C275.829 57.8072 275.66 57.4718 275.323 57.2452C274.985 57.0187 274.502 56.9054 273.873 56.9054H271.322V56.9052ZM274.234 63.7867C275.63 63.7867 276.328 63.3196 276.328 62.3853C276.328 61.4512 275.63 60.9842 274.234 60.9842H271.322V63.7867H274.234ZM279.881 55.4901H281.684V65.202H279.881V55.4901ZM284.114 55.4901H285.917V63.6757H290.992V65.202H284.114V55.4901ZM298.595 62.9543H293.741L292.784 65.2018H290.926L295.294 55.4899H297.069L301.452 65.2018H299.566L298.595 62.9543ZM297.998 61.5392L296.168 57.2937L294.351 61.5392H297.999H297.998ZM311.121 55.4901V65.202H309.637L304.284 58.6255V65.202H302.494V55.4901H303.978L309.332 62.0664V55.4901H311.121Z" fill="#FEFEFE"/>
<path fill-rule="evenodd" clip-rule="evenodd" d="M157.7 2.99238C153.944 3.40774 148.806 7.85612 145.726 9.93507L128.951 21.6462C124.949 24.5556 120.605 26.4131 119.564 31.1431C118.868 34.308 119.893 36.4133 120.804 39.0901C124.016 48.5324 127.337 57.9418 130.397 67.4281C132.094 72.6872 134.26 76.003 140.759 75.9941C143.943 75.9899 176.438 76.1871 178.65 75.9137C184.892 75.1423 186.12 69.9621 187.547 65.7646C190.758 56.3208 194.074 46.8821 197.131 37.4177C199.118 31.2686 197.802 28.2912 192.821 24.7077L181.594 16.8854C178.083 14.5695 173.995 11.4476 170.479 9.12248C165.91 6.1012 162.481 2.46352 157.7 2.99238H157.7Z" fill="#F16736"/>
<mask id="mask0_14_64" style="mask-type:luminance" maskUnits="userSpaceOnUse" x="119" y="2" width="80" height="75">
<path d="M157.7 2.99238C153.944 3.40774 148.806 7.85612 145.726 9.93507L128.951 21.6462C124.949 24.5556 120.605 26.4131 119.564 31.1431C118.868 34.308 119.893 36.4133 120.804 39.0901C124.016 48.5324 127.337 57.9418 130.397 67.4281C132.094 72.6872 134.26 76.003 140.759 75.9941C143.943 75.9899 176.438 76.1871 178.65 75.9137C184.892 75.1423 186.12 69.9621 187.547 65.7646C190.758 56.3208 194.074 46.8821 197.131 37.4177C199.118 31.2686 197.802 28.2912 192.821 24.7077L181.594 16.8854C178.083 14.5695 173.995 11.4476 170.479 9.12248C165.91 6.1012 162.481 2.46352 157.7 2.99238H157.7Z" fill="white"/>
</mask>
<g mask="url(#mask0_14_64)">
<path fill-rule="evenodd" clip-rule="evenodd" d="M148.669 50.2061C148.422 50.5786 146.277 52.4587 145.833 52.7913C141.949 55.7052 137.405 60.2399 133.594 63.6293C131.866 65.1785 130.079 66.8782 128.314 68.358C127.925 68.6835 125.767 70.5005 125.737 70.7848C125.705 71.0785 129.88 75.4309 130.617 75.5281L133.185 72.6748C134.994 70.2617 138.553 66.6759 140.784 64.009L145.926 58.3071C146.639 57.5093 150.437 52.7299 151.032 52.57C149.735 54.5496 148.16 57.1667 146.763 59.0058C143.156 63.7559 139.585 69.9602 136.16 75.0946C135.828 75.5897 134.159 78.1212 134.075 78.4323C134.986 79.0283 135.971 79.628 136.948 80.1469C141.147 82.3772 138.972 83.4258 143.459 75.0273C145.836 70.5768 148.003 65.7821 150.264 61.2573C150.722 60.3323 153.332 54.9819 153.71 54.4785C153.463 55.4842 152.97 56.9665 152.6 58.0321C150.613 63.9814 150.312 65.145 148.221 71.2059L144.721 81.7126C144.124 83.8002 143.517 83.4338 145.675 84.0688C147.014 84.4628 149.535 85.2757 150.754 85.3843C151.435 82.5292 152.608 76.8898 153.121 74.5932L155.448 62.9671C155.737 61.3529 156.689 56.1902 156.983 55.2873L155.953 72.5098C155.637 76.045 155.42 82.2352 155.201 86.0796H162.15C162.15 84.6616 161.864 82.166 161.874 80.5167C161.326 72.3872 160.268 63.0833 160.268 55.085C160.497 55.6042 162.706 66.8223 163.064 68.6198C163.474 70.7916 164.077 73.0509 164.407 75.2014L165.728 81.666C165.924 82.6702 166.196 84.5287 166.598 85.3843C167.355 85.317 169.022 84.8025 169.811 84.5658L173.13 83.7159C173.132 82.7769 172.703 81.7753 172.355 80.8762L170.243 74.5079C169.266 71.4529 167.023 64.8016 166.008 61.7535C165.231 59.425 164.077 56.652 163.54 54.3773C163.977 54.6922 166.443 60.195 167.01 61.1955L175.575 78.3503C177.762 82.3858 176.363 82.5189 180.403 80.1453C181.108 79.7307 182.923 78.8281 183.277 78.2929L170.712 59.16C170.037 58.1538 166.643 53.3902 166.459 52.7086C166.83 52.8468 173.9 60.9346 175.317 62.6182C177.642 65.3815 182.323 70.333 184.225 72.7553C184.421 73.0049 186.59 75.5123 186.89 75.5119C187.399 75.3739 191.458 71.3135 191.631 70.7686C189.997 69.2902 188.336 67.7015 186.663 66.2839L173.098 54.1311C172.221 53.3012 169.143 50.8995 168.683 50.2057L192.7 66.0846C193.262 66.4596 193.872 66.7634 194.534 67.0301C195.183 66.1236 197.838 61.6993 197.844 61.2166L184.366 54.3988C182.085 53.281 179.887 52.127 177.624 50.9932C176.721 50.5405 171.194 47.9664 170.907 47.5637L192.313 54.6526C194.023 55.1441 198.179 56.9899 199.538 57.0188C199.945 56.4016 201.344 51.2984 201.345 50.4837C199.245 49.4106 189.657 48.0438 186.695 47.3422C185.334 47.0661 172.283 44.5825 171.88 44.2266C175.35 44.2266 179.459 44.6494 183 44.9209C188.03 45.313 193.059 45.366 198.091 45.813L201.901 46.0343V38.9431L197.449 39.2171C192.965 39.3909 188.456 39.7844 183.967 40.051C179.978 40.2231 175.566 40.8725 171.646 40.7634C172.857 40.5117 180.845 38.9608 182.829 38.4948C186.514 37.7345 190.364 37.0628 194.01 36.1933C194.784 36.0087 200.739 34.9118 201.345 34.4936C201.344 33.6424 199.998 28.6568 199.538 27.9585C197.791 28.3747 190.866 30.7756 188.644 31.5205C183.741 33.1853 175.78 36.4566 171.118 37.5056L194.442 25.5024C195.441 25.0047 196.992 24.3632 197.87 23.7873C197.704 23.1019 196.635 21.5457 196.249 20.8205C195.862 20.094 194.996 18.3445 194.396 17.9473C192.738 18.3458 179.234 28.0644 175.159 30.5438C173.998 31.2496 169.461 34.5618 168.683 34.7717C169.08 34.1736 173.452 30.5802 174.414 29.6599L183.77 21.3603C185.497 19.9138 187.113 18.2544 188.899 16.759C189.49 16.2645 191.452 14.6275 191.628 14.0421C190.698 12.8167 187.949 10.5633 186.837 9.45493C185.695 10.6985 185.234 11.2225 183.213 13.4348C181.281 15.743 179.144 18.027 177.135 20.2855C175.3 22.3978 173.093 24.4925 171.463 26.7073C170.376 27.9573 167.265 31.9204 166.32 32.5472C166.539 31.7344 169.842 27.1223 170.545 26.0677C171.967 23.9342 173.421 21.7339 174.768 19.5862C176.445 16.9138 179.732 12.3492 181.187 9.87811C181.719 8.97523 182.82 7.30933 183.226 6.5712C182.289 6.03031 181.217 5.35505 180.3 4.79624C179.641 4.39437 177.933 3.35943 177.3 3.20881C176.838 3.90918 175.938 5.81873 175.564 6.61634C173.941 10.0741 172.028 13.4571 170.419 16.9031C169.75 18.3338 164.685 28.7559 163.641 30.3729C164.199 28.0068 165.245 25.5456 165.949 23.4285C166.926 20.5232 167.66 18.3108 168.387 16.1221L171.976 5.1133C172.312 4.18721 173.129 2.29201 173.13 1.40115C172.139 0.94781 169.54 0.332669 168.269 0.00716811C167.342 -0.229944 166.552 -0.756273 166.324 0.431818L164.429 9.65956C163.668 13.066 163.049 16.5461 162.373 19.9779C161.765 22.922 161.209 26.5181 160.343 29.3491C160.343 26.7966 160.94 22.1242 160.995 19.1423L161.594 8.63158C161.846 5.0555 162.15 2.14919 162.15 -0.962585H155.201C155.201 0.288369 155.342 1.60261 155.337 2.93309L155.753 9.46886C155.909 13.5854 156.03 15.507 156.35 19.6343C156.55 22.0533 156.977 26.8567 156.881 29.2795C156.559 27.7946 155.741 23.8546 155.466 22.132C155.179 20.342 154.673 18.4243 154.283 16.6413C153.172 11.6938 152.255 6.4826 151.227 1.48342C150.847 -0.674001 151.032 -0.495745 149.084 0.00864476C147.577 0.398698 145.619 0.762171 144.221 1.40115C144.222 2.3053 151.986 25.3311 152.561 26.8451C152.617 26.9921 153.284 29.235 153.483 30.2334C152.926 29.5082 151.499 26.5023 151.149 25.6851C149.481 22.2512 148.615 20.3414 146.908 16.9275C144.618 12.3463 142.389 7.73988 140.052 3.2086C139.272 3.39424 135.035 5.91788 134.075 6.54567C134.579 7.60867 142.995 20.4152 144.581 22.7324C145.61 24.2367 149.625 30.4446 150.602 31.978C149.374 30.6374 146.473 27.4923 145.946 26.7894L132.557 11.6803C130.112 8.86152 130.998 8.72082 127.995 11.725C124.967 14.7539 125.181 13.8198 127.861 16.2386C133.152 20.957 138.457 25.6591 143.729 30.3982C144.74 31.2448 147.989 34.0082 148.328 34.5187C147.527 34.3025 137.886 27.5208 135.837 26.335L129.406 22.0628C128.356 21.3628 123.63 17.9707 122.822 17.9019C122.8 17.9268 122.751 17.9979 122.64 18.2004C122.498 18.5441 119.926 22.5592 119.482 23.7871C124.05 26.13 128.52 28.3865 133.056 30.6467C137.076 32.6573 142.558 35.1014 146.388 37.3506L132.325 32.768C129.87 32.0658 127.586 31.0946 125.129 30.3733C122.685 29.6558 120.311 28.5532 117.814 27.9581C117.33 28.6937 116.005 33.669 116.007 34.6322L125.19 36.5688C128.89 37.3175 132.503 38.059 136.271 38.8323C139.625 39.5148 141.933 39.8875 145.7 40.763C142.116 40.8358 134.547 40.1626 130.74 39.9158C126.566 39.7175 121.443 39.0521 117.398 39.0806L115.451 38.9427V46.0339C116.265 46.0349 121.28 45.7885 122.029 45.6607C125.351 45.4383 126.672 45.3504 130.336 45.0738L141.594 44.3785C142.51 44.2715 144.497 44.2264 145.472 44.2264C144.832 44.4985 142.807 44.819 141.971 45.0337C133.362 46.6545 124.73 48.5645 116.146 50.3443C115.872 50.94 117.383 56.5292 117.814 57.0193C118.554 56.9566 120.668 56.1362 121.513 55.8527C127.586 53.8161 133.701 51.9174 139.733 49.7466L147.001 47.2852C146.758 47.6259 134.694 53.5434 133.266 54.2619C130.963 55.4213 128.673 56.6149 126.333 57.7542C125.165 58.3225 120.082 60.6479 119.482 61.329C119.595 61.7442 122.664 66.9604 122.956 67.1689C124.609 66.3215 126.178 64.9657 127.74 64.0293C131.464 61.7982 135.305 59.0353 138.968 56.6294C140.733 55.4521 147.734 50.458 148.669 50.2055L148.669 50.2061Z" fill="url(#paint0_radial_14_64)"/>
</g>
<path fill-rule="evenodd" clip-rule="evenodd" d="M157.7 2.99238C153.944 3.40774 148.806 7.85612 145.726 9.93507L128.951 21.6462C124.949 24.5556 120.605 26.4131 119.564 31.1431C118.868 34.308 119.893 36.4133 120.804 39.0901C124.016 48.5324 127.337 57.9418 130.397 67.4281C132.094 72.6872 134.26 76.003 140.759 75.9941C143.943 75.9899 176.438 76.1871 178.65 75.9137C184.891 75.1423 186.12 69.9621 187.547 65.7646C190.758 56.3208 194.074 46.8821 197.131 37.4177C199.118 31.2686 197.802 28.2912 192.821 24.7077L181.594 16.8854C178.083 14.5695 173.995 11.4476 170.479 9.12248C165.91 6.1012 162.481 2.46352 157.7 2.99238H157.7Z" stroke="#FEFEFE" stroke-width="5" stroke-miterlimit="22.9256"/>
<path fill-rule="evenodd" clip-rule="evenodd" d="M144.391 66.835C144.745 66.6719 147.523 66.2607 150.12 63.7354L154.612 59.4902C155.346 58.5892 157.046 55.9609 158.224 55.6861C158.596 57.2745 160.173 60.6778 160.173 64.7923C161.149 63.805 161.68 62.4623 162.154 61.17C163.062 57.3241 163.13 55.2158 162.798 51.0634L162.481 40.7444C164.065 40.2778 166.087 39.2988 167.734 38.141C169.196 37.1133 170.331 36.2138 171.338 34.3829C171.967 33.3292 172.236 32.3993 173.006 28.2665C173.019 28.1448 172.413 28.9907 171.76 29.8449C167.273 35.5341 160.931 37.4314 155.394 34.0844C151.519 31.7413 147.845 24.9687 145.689 20.9802C145.102 20.0315 144.825 19.5767 144.347 18.6787C144.347 21.4196 144.461 24.4204 145.038 26.6251C145.533 29.7018 146.923 32.1441 148.367 33.8975C151.038 37.1386 154 38.6773 154.871 42.9563C155.257 46.8749 154.432 50.1283 152.82 53.6546C150.713 58.1236 147.294 62.8359 144.391 66.8352V66.835Z" fill="#FEFEFE"/>
<path fill-rule="evenodd" clip-rule="evenodd" d="M147.694 65.5454C149.442 64.6953 152.245 62.5015 153.251 61.501L156.618 57.8268C157.25 57.0511 158.306 55.1412 159.32 54.9047C160.708 57.5273 160.172 61.2333 160.172 64.7923C160.582 64.5356 160.535 64.5459 160.665 64.4324C161.558 63.4911 162.288 61.3489 162.594 60.0551C163.376 56.7438 163.346 51.6704 163.06 48.0951L162.388 39.562C163.967 39.4306 167.25 37.5253 168.565 36.1961C170.668 34.0709 170.984 33.1735 171.76 29.8449C171.368 30.271 170.998 30.6769 170.443 31.2549C166.421 35.4368 160.749 36.5783 155.982 33.6967C152.645 31.6793 149.76 27.9942 147.904 24.5603C147.531 23.8703 145.846 21.1926 145.689 20.9804C145.689 23.3403 146.213 26.0737 146.709 27.9718C147.27 30.1141 148.232 31.877 149.476 33.3868C151.775 36.1773 155.447 39.6576 156.406 42.6483C157.131 44.9091 157.017 47.2355 156.355 49.5515C155.418 52.8327 153.529 56.3518 151.654 59.1687C151.363 59.606 151.154 59.9079 150.855 60.4146C150.154 61.6025 148.154 64.7168 147.694 65.5458V65.5454Z" fill="#14A23C"/>
<path d="M159.203 33.2442C161.404 33.2442 163.187 31.4598 163.187 29.2586C163.187 27.0575 161.404 25.2731 159.203 25.2731C157.003 25.2731 155.22 27.0575 155.22 29.2586C155.22 31.4598 157.003 33.2442 159.203 33.2442Z" fill="#14A23C"/>
<path d="M223.311 32.6419H228.493V40.1272C227.448 40.852 226.235 41.4085 224.853 41.7962C223.472 42.1842 222.115 42.3778 220.784 42.3778C218.896 42.3778 217.203 41.9861 215.703 41.202C214.203 40.4181 213.028 39.3222 212.177 37.9147C211.326 36.5068 210.9 34.9094 210.9 33.1224C210.9 31.3355 211.326 29.7379 212.177 28.3302C213.028 26.9225 214.216 25.8266 215.741 25.0429C217.266 24.2588 218.989 23.8671 220.91 23.8671C222.646 23.8671 224.2 24.1578 225.574 24.7396C226.947 25.321 228.089 26.1684 228.999 27.2809L225.182 30.6442C224.07 29.346 222.747 28.6968 221.213 28.6968C219.899 28.6968 218.854 29.093 218.079 29.8854C217.304 30.6777 216.916 31.7567 216.916 33.1222C216.916 34.454 217.3 35.5246 218.067 36.3338C218.833 37.143 219.857 37.5476 221.138 37.5476C221.896 37.5476 222.621 37.4044 223.312 37.1179V32.6417L223.311 32.6419ZM239.388 37.5225H237.77V41.9732H231.805V24.2715H240.323C241.958 24.2715 243.382 24.5411 244.595 25.0805C245.808 25.6201 246.744 26.3956 247.401 27.4071C248.058 28.4188 248.387 29.5989 248.387 30.9475C248.387 32.212 248.1 33.3161 247.527 34.2603C246.954 35.2046 246.128 35.9545 245.05 36.511L248.766 41.9732H242.396L239.388 37.5225ZM242.371 30.9475C242.371 30.2902 242.169 29.7799 241.764 29.4175C241.359 29.055 240.753 28.8738 239.944 28.8738H237.77V33.0212H239.944C240.753 33.0212 241.359 32.8398 241.764 32.4773C242.169 32.1149 242.371 31.6048 242.371 30.9473V30.9475ZM263.452 38.888H256.728L255.54 41.9732H249.474L257.209 24.2715H263.073L270.808 41.9732H264.641L263.453 38.888H263.452ZM261.809 34.589L260.09 30.1383L258.371 34.589H261.809ZM289.968 24.2715V41.9732H285.065L278.341 33.9317V41.9732H272.527V24.2715H277.431L284.155 32.313V24.2715H289.969H289.968ZM293.609 24.2715H302.329C304.301 24.2715 306.041 24.6297 307.549 25.3461C309.057 26.0629 310.229 27.0869 311.063 28.4188C311.897 29.7506 312.314 31.3186 312.314 33.1224C312.314 34.9263 311.897 36.4941 311.063 37.8261C310.229 39.1578 309.057 40.182 307.549 40.8986C306.041 41.6152 304.301 41.9734 302.329 41.9734H293.609V24.2717V24.2715ZM302.077 37.32C303.357 37.32 304.381 36.9534 305.148 36.2199C305.915 35.4864 306.298 34.454 306.298 33.1222C306.298 31.7905 305.915 30.7577 305.148 30.0244C304.381 29.2911 303.357 28.9243 302.077 28.9243H299.574V37.32H302.077Z" fill="white"/>
<path d="M20.8272 41.7023C18.8164 41.7023 17.0102 41.3062 15.4086 40.5138C13.8071 39.7213 12.5527 38.6212 11.6451 37.2133C10.7373 35.8054 10.2838 34.2164 10.2838 32.4461C10.2838 30.6756 10.7375 29.0867 11.6451 27.6788C12.5527 26.2709 13.8071 25.171 15.4086 24.3784C17.0104 23.5859 18.8164 23.1897 20.8272 23.1897C22.8381 23.1897 24.6443 23.5859 26.2457 24.3784C27.8472 25.1708 29.1016 26.2709 30.0094 27.6788C30.917 29.0867 31.3705 30.6756 31.3705 32.4461C31.3705 34.2164 30.9168 35.8054 30.0094 37.2133C29.1016 38.6212 27.8472 39.7211 26.2457 40.5138C24.6441 41.3062 22.8381 41.7023 20.8272 41.7023ZM20.8272 36.8719C21.6102 36.8719 22.3174 36.6905 22.9494 36.3281C23.5812 35.9657 24.0839 35.4514 24.4575 34.7854C24.831 34.1194 25.018 33.3395 25.018 32.4461C25.018 31.5525 24.8312 30.7728 24.4575 30.1067C24.0839 29.4407 23.5812 28.9264 22.9494 28.564C22.3174 28.2015 21.6102 28.0201 20.8272 28.0201C20.0441 28.0201 19.3369 28.2015 18.7051 28.564C18.0731 28.9264 17.5704 29.4407 17.197 30.1067C16.8233 30.7728 16.6363 31.5525 16.6363 32.4461C16.6363 33.3395 16.8231 34.1194 17.197 34.7854C17.5704 35.4514 18.0731 35.9657 18.7051 36.3281C19.3369 36.6905 20.0441 36.8719 20.8272 36.8719ZM46.4786 36.8466H44.7704V41.2975H38.471V23.5943H47.4663C49.1925 23.5943 50.6964 23.8639 51.9776 24.4035C53.2588 24.9431 54.2463 25.7186 54.9405 26.7303C55.6344 27.7419 55.9813 28.9221 55.9813 30.271C55.9813 31.5354 55.6787 32.6398 55.0737 33.584C54.4688 34.5282 53.5968 35.2784 52.458 35.8349L56.3817 41.2975H49.6553L46.4789 36.8466H46.4786ZM49.6283 30.271C49.6283 29.6134 49.4147 29.1034 48.9877 28.7409C48.5607 28.3783 47.9201 28.1971 47.0659 28.1971H44.7702V32.3447H47.0659C47.9201 32.3447 48.5607 32.1632 48.9877 31.8008C49.4147 31.4384 49.6283 30.9283 49.6283 30.2708V30.271ZM79.6571 36.6694V41.2975H62.4939V37.6305L71.0354 28.2226H62.7609V23.5945H79.2301V27.2615L70.6886 36.6694H79.6571ZM95.2453 41.7023C92.3803 41.7023 90.147 40.9689 88.5457 39.5021C86.9442 38.0353 86.1435 35.9783 86.1435 33.3313V23.5945H92.4427V33.1543C92.4427 34.4525 92.6875 35.3969 93.177 35.987C93.6664 36.577 94.3736 36.8721 95.2991 36.8721C96.2244 36.8721 96.9318 36.577 97.4213 35.987C97.9107 35.3969 98.1553 34.4527 98.1553 33.1543V23.5945H104.348V33.3313C104.348 35.9783 103.547 38.0353 101.946 39.5021C100.344 40.9689 98.1108 41.7023 95.246 41.7023H95.2453Z" fill="#FEFEFE"/>
</g>
<defs>
<radialGradient id="paint0_radial_14_64" cx="0" cy="0" r="1" gradientUnits="userSpaceOnUse" gradientTransform="translate(158.674 42.5586) scale(228.567 230.133)">
<stop stop-color="#FAC722"/>
<stop offset="0.611765" stop-color="#F9AE1B"/>
<stop offset="1" stop-color="#F99515"/>
</radialGradient>
<clipPath id="clip0_14_64">
<rect width="322" height="79" fill="white"/>
</clipPath>
</defs>
</svg>
