<svg width="76" height="76" viewBox="0 0 76 76" fill="none" xmlns="http://www.w3.org/2000/svg">
<circle cx="38" cy="38" r="20" fill="#FF6600"/>
<path d="M45.4412 30.6281L29.2652 31.599C28.6275 31.6385 28.0174 31.8736 27.5182 32.2725C27.0191 32.6713 26.655 33.2144 26.4758 33.8277C26.2965 34.441 26.3108 35.0946 26.5166 35.6995C26.7224 36.3044 27.1098 36.8311 27.6259 37.2078L32.5576 40.7802C32.6736 40.8684 32.7709 40.9789 32.8438 41.1051C32.9167 41.2313 32.9637 41.3708 32.982 41.5154L33.61 47.5725C33.6641 48.0873 33.846 48.5803 34.1392 49.0068C34.4324 49.4334 34.8275 49.7799 35.2886 50.0149C35.7497 50.2499 36.2623 50.366 36.7797 50.3525C37.2971 50.339 37.8029 50.1965 38.2512 49.9378C38.6686 49.6913 39.0256 49.3545 39.296 48.9521L48.2248 35.4287C48.5408 34.9476 48.7168 34.3883 48.7334 33.813C48.7499 33.2377 48.6063 32.6691 48.3185 32.1707C48.0308 31.6723 47.6102 31.2636 47.1037 30.9903C46.5972 30.717 46.0248 30.5898 45.4502 30.6229L45.4412 30.6281ZM46.4913 34.2897L37.5624 47.813C37.4433 47.9874 37.2737 48.1211 37.0764 48.1963C36.8791 48.2715 36.6636 48.2845 36.4586 48.2338C36.2537 48.183 36.0692 48.0707 35.9298 47.9121C35.7905 47.7535 35.703 47.5561 35.679 47.3463L35.0421 41.2943C35.0327 41.214 35.0187 41.1343 35 41.0557L41.1776 37.489C41.4154 37.3517 41.5889 37.1256 41.6599 36.8604C41.731 36.5952 41.6938 36.3126 41.5565 36.0748C41.4192 35.837 41.1931 35.6635 40.9279 35.5924C40.6626 35.5213 40.3801 35.5585 40.1423 35.6958L33.9647 39.2625C33.9059 39.2069 33.8439 39.1549 33.779 39.1066L28.8564 35.5291C28.6867 35.4034 28.5594 35.2289 28.4917 35.0289C28.424 34.829 28.4191 34.6131 28.4776 34.4102C28.5361 34.2073 28.6552 34.0272 28.8189 33.8939C28.9827 33.7607 29.1833 33.6807 29.3938 33.6646L45.5699 32.6937C45.7602 32.6842 45.9494 32.7273 46.1168 32.8184C46.2841 32.9095 46.4231 33.045 46.5184 33.2101C46.6136 33.3751 46.6615 33.5632 46.6567 33.7537C46.652 33.9442 46.5947 34.1296 46.4913 34.2897Z" fill="white"/>
</svg>
