<svg width="21" height="26" viewBox="0 0 21 26" fill="none"
    xmlns="http://www.w3.org/2000/svg">
    <path d="M11.3941 15.1921H6.33006C5.99429 15.1921 5.67228 15.3255 5.43486 15.563C5.19743 15.8004 5.06405 16.1224 5.06405 16.4582C5.06405 16.7939 5.19743 17.1159 5.43486 17.3534C5.67228 17.5908 5.99429 17.7242 6.33006 17.7242H11.3941C11.7299 17.7242 12.0519 17.5908 12.2893 17.3534C12.5267 17.1159 12.6601 16.7939 12.6601 16.4582C12.6601 16.1224 12.5267 15.8004 12.2893 15.563C12.0519 15.3255 11.7299 15.1921 11.3941 15.1921ZM16.4582 2.53202H14.9643C14.7031 1.79324 14.2198 1.15334 13.5806 0.700027C12.9414 0.246719 12.1777 0.00220224 11.3941 0H8.86209C8.0785 0.00220224 7.31476 0.246719 6.6756 0.700027C6.03644 1.15334 5.55313 1.79324 5.29193 2.53202H3.79804C2.79074 2.53202 1.82469 2.93217 1.11242 3.64444C0.400149 4.35671 0 5.32276 0 6.33006V21.5222C0 22.5295 0.400149 23.4956 1.11242 24.2078C1.82469 24.9201 2.79074 25.3202 3.79804 25.3202H16.4582C17.4655 25.3202 18.4315 24.9201 19.1438 24.2078C19.856 23.4956 20.2562 22.5295 20.2562 21.5222V6.33006C20.2562 5.32276 19.856 4.35671 19.1438 3.64444C18.4315 2.93217 17.4655 2.53202 16.4582 2.53202ZM7.59607 3.79804C7.59607 3.46227 7.72946 3.14025 7.96688 2.90283C8.2043 2.66541 8.52632 2.53202 8.86209 2.53202H11.3941C11.7299 2.53202 12.0519 2.66541 12.2893 2.90283C12.5267 3.14025 12.6601 3.46227 12.6601 3.79804V5.06405H7.59607V3.79804ZM17.7242 21.5222C17.7242 21.858 17.5908 22.18 17.3534 22.4174C17.1159 22.6548 16.7939 22.7882 16.4582 22.7882H3.79804C3.46227 22.7882 3.14025 22.6548 2.90283 22.4174C2.66541 22.18 2.53202 21.858 2.53202 21.5222V6.33006C2.53202 5.99429 2.66541 5.67228 2.90283 5.43486C3.14025 5.19743 3.46227 5.06405 3.79804 5.06405H5.06405V6.33006C5.06405 6.66583 5.19743 6.98784 5.43486 7.22527C5.67228 7.46269 5.99429 7.59607 6.33006 7.59607H13.9261C14.2619 7.59607 14.5839 7.46269 14.8213 7.22527C15.0588 6.98784 15.1921 6.66583 15.1921 6.33006V5.06405H16.4582C16.7939 5.06405 17.1159 5.19743 17.3534 5.43486C17.5908 5.67228 17.7242 5.99429 17.7242 6.33006V21.5222ZM13.9261 10.1281H6.33006C5.99429 10.1281 5.67228 10.2615 5.43486 10.4989C5.19743 10.7363 5.06405 11.0583 5.06405 11.3941C5.06405 11.7299 5.19743 12.0519 5.43486 12.2893C5.67228 12.5267 5.99429 12.6601 6.33006 12.6601H13.9261C14.2619 12.6601 14.5839 12.5267 14.8213 12.2893C15.0588 12.0519 15.1921 11.7299 15.1921 11.3941C15.1921 11.0583 15.0588 10.7363 14.8213 10.4989C14.5839 10.2615 14.2619 10.1281 13.9261 10.1281Z" fill="#FF6600"/>
</svg>
