<svg width="16" height="16" viewBox="0 0 16 16" fill="none" xmlns="http://www.w3.org/2000/svg">
<path d="M2.75955 2.61884C2.62457 2.61844 2.49083 2.64454 2.36589 2.69567C2.24132 2.74664 2.12797 2.82148 2.03217 2.91593L1.28393 3.63896L1.26511 3.65715L1.24829 3.67721C0.977599 3.99994 0.780043 4.37759 0.66918 4.78409C0.559889 5.18483 0.5374 5.60426 0.60313 6.01428C0.789544 7.9035 2.09604 10.1886 3.95425 12.0502C5.81222 13.9116 8.1103 15.222 9.99932 15.3923C10.4079 15.4562 10.8254 15.4328 11.2244 15.3235C11.6297 15.2126 12.0063 15.0158 12.3289 14.7464L12.3456 14.7325L12.361 14.7172L13.0848 13.9974L13.0848 13.9974L13.0874 13.9948C13.273 13.8075 13.3799 13.5562 13.3864 13.2926L13.3864 13.2926L13.3865 13.2833C13.3873 13.1474 13.3613 13.0127 13.31 12.8869C13.2587 12.7611 13.1831 12.6466 13.0875 12.5501L13.0861 12.5486L11.5801 11.0398L11.579 11.0388C11.3857 10.8463 11.124 10.738 10.851 10.738C10.578 10.738 10.3163 10.8463 10.123 11.0388L10.122 11.0399L9.05764 12.1061L9.05678 12.107C9.0517 12.1121 9.04522 12.1153 9.0384 12.1162C9.03158 12.1171 9.02461 12.1157 9.01853 12.1122L8.76761 12.5446L9.0212 12.1137C7.97352 11.4972 7.00957 10.7478 6.15323 9.88414L6.15086 9.88177C5.28935 9.02444 4.54173 8.0594 3.9265 7.01051C3.92303 7.00424 3.92161 6.99691 3.92257 6.98965C3.92356 6.98218 3.92697 6.9754 3.93208 6.97031L3.93295 6.96943L4.99727 5.90317L4.99832 5.90211C5.19045 5.70847 5.29814 5.44672 5.29814 5.17408C5.29814 4.90167 5.19064 4.64013 4.99881 4.44654C4.99865 4.44638 4.99848 4.44621 4.99832 4.44604L3.49312 2.9221L3.49313 2.92208L3.48982 2.91879C3.39341 2.82299 3.27903 2.74715 3.15321 2.69567C3.02828 2.64454 2.89454 2.61844 2.75955 2.61884ZM2.75955 2.61884C2.75859 2.61885 2.75762 2.61885 2.75666 2.61886L2.75955 3.11885L2.76245 2.61886C2.76148 2.61885 2.76052 2.61885 2.75955 2.61884ZM8.01727 0.566283C8.00904 0.566283 8.00096 0.563015 7.99485 0.556903C7.98872 0.550759 7.98511 0.542232 7.98511 0.53315C7.98511 0.524067 7.98872 0.51554 7.99485 0.509396C8.00096 0.503284 8.00904 0.500016 8.01727 0.500017L8.01827 0.500015C9.00004 0.498041 9.97251 0.690784 10.8796 1.06715C11.7867 1.44352 12.6106 1.99609 13.3036 2.69303L13.3054 2.69483C14.0094 3.3956 14.5662 4.23053 14.9431 5.15041C15.32 6.0703 15.5092 7.0565 15.4997 8.05086H15.4996V8.05566C15.4996 8.06475 15.496 8.07327 15.4899 8.07942C15.4838 8.08553 15.4757 8.0888 15.4675 8.0888C15.4592 8.0888 15.4512 8.08553 15.4451 8.07942C15.4389 8.07327 15.4353 8.06475 15.4353 8.05566H14.9353M8.01727 0.566283V1.06628M8.01727 0.566283V1.06628M8.01727 0.566283C8.99685 0.566248 9.96671 0.760564 10.8709 1.13799C11.7751 1.51542 12.5956 2.06848 13.2852 2.7652C13.9749 3.46193 14.5199 4.28852 14.8889 5.19726C15.2579 6.106 15.4436 7.07892 15.4353 8.05989L14.9353 8.05566M8.01727 1.06628C7.87613 1.06628 7.74078 1.01011 7.64098 0.910132C7.54118 0.81015 7.48511 0.674545 7.48511 0.53315C7.48511 0.391754 7.54118 0.256149 7.64098 0.156167C7.74078 0.0561853 7.87613 1.60188e-05 8.01727 1.60188e-05L14.9353 8.05566M8.01727 1.06628C8.93071 1.06625 9.83511 1.24744 10.6783 1.59941C11.5215 1.95137 12.2867 2.46714 12.9299 3.11694C13.5731 3.76674 14.0814 4.53772 14.4256 5.38537C14.7698 6.23303 14.943 7.14058 14.9353 8.05566M10.0741 10.9786L10.0747 10.978C10.1766 10.8755 10.2976 10.7943 10.4308 10.7389C10.564 10.6835 10.7068 10.6549 10.851 10.6549C10.9952 10.6549 11.138 10.6835 11.2712 10.7389C11.4044 10.7943 11.5254 10.8755 11.6273 10.978C11.6273 10.978 11.6274 10.978 11.6274 10.978L13.128 12.4867L13.128 12.4868L13.1324 12.4911C13.2339 12.5906 13.3144 12.7096 13.3691 12.8411C13.4238 12.9726 13.4516 13.1137 13.4508 13.2562L13.4508 13.2603C13.4512 13.4053 13.4229 13.549 13.3676 13.6831C13.3124 13.8171 13.2312 13.9388 13.1289 14.0412L13.1273 14.0427L12.4154 14.7613C12.1518 15.0078 11.8421 15.1995 11.5041 15.3254C11.1636 15.4523 10.8013 15.5097 10.4383 15.4945L10.4144 15.4935L10.3906 15.4947C10.263 15.5016 10.1351 15.5017 10.0075 15.4953C8.16661 15.3144 5.84725 14.0878 3.88552 12.1172C1.91669 10.1396 0.689896 7.83879 0.533101 5.99798L0.531862 5.98343L0.529775 5.96898C0.467929 5.54056 0.502704 5.10371 0.63153 4.69055C0.759404 4.28045 0.976701 3.90409 1.26757 3.58868L1.98395 2.87627L1.98395 2.87627L1.98548 2.87475C2.08767 2.77223 2.20904 2.69103 2.34258 2.63576C2.47612 2.58048 2.61922 2.55222 2.76365 2.55259L2.7677 2.55257C2.90955 2.55177 3.05013 2.57954 3.1811 2.63427C3.31207 2.68899 3.43078 2.76956 3.53016 2.87123L3.53013 2.87126L3.53447 2.87559L5.04047 4.37902C5.04047 4.37902 5.04048 4.37902 5.04048 4.37903C5.14274 4.48112 5.22392 4.60248 5.27934 4.73618C5.33475 4.86988 5.36329 5.01326 5.36329 5.15808C5.36329 5.30291 5.33475 5.44628 5.27934 5.57999C5.22392 5.71369 5.14273 5.83505 5.04047 5.93715L5.03986 5.93776L4.26823 6.71081L3.98515 6.9944L4.20026 7.33246C4.77276 8.23217 5.4414 9.06675 6.19435 9.82141C6.94664 10.5778 7.78038 11.2482 8.68027 11.8203L9.01892 12.0357L9.30242 11.7516L10.0741 10.9786Z" fill="white" stroke="white"/>
</svg>
