<svg width="9" height="6" viewBox="0 0 9 6" fill="none" xmlns="http://www.w3.org/2000/svg">
<path d="M6.10701 5.2629C5.94906 5.45506 5.97655 5.73907 6.16843 5.89726C6.3603 6.05545 6.64389 6.02791 6.80185 5.83575L8.89742 3.28643C8.96793 3.20065 9.00209 3.0953 8.9999 2.99055C8.99993 2.98836 8.99995 2.98618 8.99995 2.98399C8.99995 2.84074 8.93322 2.71311 8.82918 2.63056L6.80185 0.164249C6.64389 -0.0279075 6.3603 -0.0554447 6.16843 0.102743C5.97655 0.260932 5.94906 0.544943 6.10701 0.7371L7.58353 2.53333L0.449997 2.53333C0.20147 2.53333 -5.7258e-07 2.73509 -5.94339e-07 2.98399C-6.16098e-07 3.23288 0.20147 3.43465 0.449997 3.43465L7.60985 3.43465L6.10701 5.2629Z" fill="#14A23C"/>
</svg>
