<svg width="23" height="21" viewBox="0 0 23 21" fill="none" xmlns="http://www.w3.org/2000/svg">
<path d="M19.4412 0.628071L3.2652 1.59901C2.62747 1.63846 2.01743 1.87363 1.51824 2.27247C1.01905 2.67131 0.655017 3.21439 0.475769 3.82769C0.29652 4.44098 0.310781 5.09463 0.516606 5.69952C0.722432 6.30441 1.10981 6.83111 1.62591 7.20779L6.55757 10.7802C6.6736 10.8684 6.7709 10.9789 6.84378 11.1051C6.91666 11.2313 6.96366 11.3708 6.98204 11.5154L7.61 17.5725C7.66414 18.0873 7.84605 18.5803 8.1392 19.0068C8.43235 19.4334 8.82745 19.7799 9.28859 20.0149C9.74973 20.2499 10.2623 20.366 10.7797 20.3525C11.2971 20.339 11.8029 20.1965 12.2512 19.9378C12.6686 19.6913 13.0256 19.3545 13.296 18.9521L22.2248 5.42869C22.5408 4.94764 22.7168 4.38827 22.7334 3.81299C22.7499 3.23771 22.6063 2.66914 22.3185 2.17072C22.0308 1.67231 21.6102 1.26365 21.1037 0.990338C20.5972 0.717027 20.0248 0.589814 19.4502 0.622894L19.4412 0.628071ZM20.4913 4.28966L11.5624 17.813C11.4433 17.9874 11.2737 18.1211 11.0764 18.1963C10.8791 18.2715 10.6636 18.2845 10.4586 18.2338C10.2537 18.183 10.0692 18.0707 9.92985 17.9121C9.79051 17.7535 9.703 17.5561 9.67905 17.3463L9.04213 11.2943C9.03275 11.214 9.01867 11.1343 8.99997 11.0557L15.1776 7.48904C15.4154 7.35175 15.5889 7.12562 15.6599 6.86039C15.731 6.59517 15.6938 6.31257 15.5565 6.07478C15.4192 5.83698 15.1931 5.66347 14.9279 5.5924C14.6626 5.52133 14.3801 5.55854 14.1423 5.69583L7.96466 9.26247C7.90589 9.20694 7.84391 9.15491 7.77905 9.10663L2.85636 5.52906C2.68667 5.40343 2.55945 5.22893 2.49175 5.02895C2.42404 4.82896 2.4191 4.61306 2.47759 4.41019C2.53607 4.20732 2.65518 4.02718 2.81894 3.89392C2.98271 3.76066 3.1833 3.68066 3.39383 3.66464L19.5699 2.6937C19.7602 2.68415 19.9494 2.72731 20.1168 2.81841C20.2841 2.90952 20.4231 3.04504 20.5184 3.21006C20.6136 3.37508 20.6615 3.56318 20.6567 3.75367C20.652 3.94415 20.5947 4.12963 20.4913 4.28966Z" fill="white"/>
</svg>
