<svg width="295" height="295" viewBox="0 0 295 295" fill="none" xmlns="http://www.w3.org/2000/svg">
<path d="M220.601 209.887C220.601 209.887 238.696 205.167 252.856 181.567C268.727 155.111 261.919 108.949 240.779 86.5235C221.167 65.726 177.749 62.068 152.556 72.216C128.75 81.8094 110.466 104.867 95.9163 108.011C81.3669 111.156 63.2657 106.047 43.601 127.676C23.9363 149.305 28.261 198.087 50.681 214.211C73.101 230.336 106.141 211.456 134.856 198.476C163.572 185.496 168.286 213.816 220.601 209.887Z" fill="#FF6600"/>
<g opacity="0.7">
<path d="M220.601 209.887C220.601 209.887 238.696 205.167 252.856 181.567C268.727 155.111 261.919 108.949 240.779 86.5235C221.167 65.726 177.749 62.068 152.556 72.216C128.75 81.8094 110.466 104.867 95.9163 108.011C81.3669 111.156 63.2657 106.047 43.601 127.676C23.9363 149.305 28.261 198.087 50.681 214.211C73.101 230.336 106.141 211.456 134.856 198.476C163.572 185.496 168.286 213.816 220.601 209.887Z" fill="white"/>
</g>
<path d="M214.607 162.25V162.215C209.792 160.616 202.405 161.159 201.308 161.813C200.141 162.594 199.139 163.597 198.358 164.763C195.765 168.442 193.906 172.587 192.883 176.971L140.52 181.838C138.591 177.673 135.682 173.938 132.762 171.684C131.927 170.985 130.966 170.454 129.93 170.121C129.474 170.066 129.012 170.082 128.561 170.168C126.661 164.663 123.971 159.353 120.608 159.017C113.528 158.309 101.173 160.681 97.8043 167.548C94.4354 174.416 93.3793 191.561 93.3793 191.561L91.0193 193.921C89.298 190.568 86.9039 187.605 83.9865 185.219C83.1548 184.516 82.1923 183.985 81.1545 183.655C80.5645 183.49 78.2045 183.856 75.7324 184.664C75.6321 184.57 75.5377 184.475 75.4315 184.387C73.0715 182.41 68.2335 181.331 65.5313 186.369C62.8291 191.408 66.0741 200.948 67.6907 203.107C68.4758 204.211 69.4603 205.157 70.5935 205.898C72.4992 210.618 75.9035 216.636 81.1427 216.913C82.9372 217.01 84.7316 216.72 86.4041 216.062C88.0766 215.405 89.5882 214.395 90.8364 213.102C94.2348 209.562 94.6006 204.588 93.3203 199.721L93.869 198.918C93.869 198.918 95.0903 200.659 99.769 199.957C101.125 199.817 102.411 199.284 103.468 198.423C105.663 204.022 109.209 209.633 114.843 210.471C117.262 210.841 119.731 210.685 122.084 210.016C124.437 209.346 126.618 208.177 128.478 206.588C129.56 205.655 130.503 204.572 131.281 203.373C134.436 203.199 137.408 201.837 139.6 199.562C141.561 197.47 142.683 194.729 142.75 191.862L149.718 191.048C154.092 192.999 158.865 193.892 163.648 193.656C168.229 193.361 172.565 191.484 175.914 188.346L191.791 186.989C192.057 193.142 194.269 198.789 199.461 201.898C201.449 203.084 203.67 203.826 205.972 204.071C208.274 204.317 210.602 204.06 212.795 203.32C220.117 200.865 221.852 189.986 222.324 183.372C223.055 172.752 219.669 163.754 214.607 162.25Z" fill="#263238" stroke="#263238" stroke-width="0.75" stroke-linecap="round" stroke-linejoin="round"/>
<path d="M117.67 207.055C117.061 207.833 116.284 208.464 115.398 208.901" stroke="white" stroke-width="0.5" stroke-linecap="round" stroke-linejoin="round"/>
<path d="M120.531 193.072C120.531 193.072 121.233 200.742 118.62 205.609" stroke="white" stroke-width="0.5" stroke-linecap="round" stroke-linejoin="round"/>
<path d="M122.602 201.544C121.935 204.494 120.608 207.356 118.035 208.624" stroke="white" stroke-width="0.5" stroke-linecap="round" stroke-linejoin="round"/>
<path d="M125.806 192.487C125.806 192.487 126.986 205.237 120.679 208.317" stroke="white" stroke-width="0.5" stroke-linecap="round" stroke-linejoin="round"/>
<path d="M128.449 192.192C128.449 192.192 129.629 204.948 123.316 208.022" stroke="white" stroke-width="0.5" stroke-linecap="round" stroke-linejoin="round"/>
<path d="M208.046 201.131C207.368 201.987 206.525 202.699 205.568 203.226" stroke="white" stroke-width="0.5" stroke-linecap="round" stroke-linejoin="round"/>
<path d="M212.789 185.207C212.789 185.207 212.412 193.933 209.173 199.485" stroke="white" stroke-width="0.5" stroke-linecap="round" stroke-linejoin="round"/>
<path d="M213.633 194.871C212.571 198.228 210.872 201.485 208.187 202.901" stroke="white" stroke-width="0.5" stroke-linecap="round" stroke-linejoin="round"/>
<path d="M218.029 184.558C218.029 184.558 217.397 199.096 210.807 202.577" stroke="white" stroke-width="0.5" stroke-linecap="round" stroke-linejoin="round"/>
<path d="M220.66 184.239C220.66 184.239 220.029 198.771 213.438 202.258" stroke="white" stroke-width="0.5" stroke-linecap="round" stroke-linejoin="round"/>
<path d="M82.8065 214.943C82.3044 215.712 81.6423 216.364 80.8654 216.854" stroke="white" stroke-width="0.5" stroke-linecap="round" stroke-linejoin="round"/>
<path d="M83.7387 202.535C83.7387 202.535 85.4025 209.025 83.5263 213.562" stroke="white" stroke-width="0.5" stroke-linecap="round" stroke-linejoin="round"/>
<path d="M86.8244 209.503C86.5589 212.129 85.6444 214.772 83.3611 216.223" stroke="white" stroke-width="0.5" stroke-linecap="round" stroke-linejoin="round"/>
<path d="M88.7183 201.273C88.7183 201.273 91.4913 212.04 85.8509 215.586" stroke="white" stroke-width="0.5" stroke-linecap="round" stroke-linejoin="round"/>
<path d="M91.2081 200.635C91.2081 200.635 93.987 211.403 88.3407 214.955" stroke="white" stroke-width="0.5" stroke-linecap="round" stroke-linejoin="round"/>
<path d="M111.545 188.7C112.95 196.73 112.07 203.597 109.592 204.04C107.114 204.482 103.958 198.311 102.554 190.281C101.15 182.251 102.029 175.383 104.513 174.941C106.996 174.498 110.141 180.664 111.545 188.7Z" fill="#FF6600" stroke="#263238" stroke-linecap="round" stroke-linejoin="round"/>
<path d="M110.295 188.871C110.684 191.951 110.324 194.529 109.48 194.635C108.637 194.741 107.645 192.334 107.256 189.254C106.867 186.175 107.256 183.59 108.07 183.484C108.884 183.378 109.905 185.791 110.295 188.871Z" fill="#FF6600" stroke="#263238" stroke-linecap="round" stroke-linejoin="round"/>
<path d="M104.377 181.508C104.461 180.474 104.624 179.448 104.867 178.44" stroke="#263238" stroke-width="0.75" stroke-linecap="round" stroke-linejoin="round"/>
<path d="M108.289 201.143C106.656 197.874 105.488 194.392 104.819 190.8C104.375 188.259 104.195 185.679 104.282 183.101" stroke="#263238" stroke-width="0.75" stroke-linecap="round" stroke-linejoin="round"/>
<path d="M76.8228 212.564C78.6064 212.07 78.7549 206.988 77.1545 201.213C75.5541 195.438 72.8109 191.158 71.0273 191.652C69.2437 192.146 69.0952 197.228 70.6956 203.003C72.2959 208.778 75.0392 213.058 76.8228 212.564Z" fill="#FF6600" stroke="#263238" stroke-linecap="round" stroke-linejoin="round"/>
<path d="M76.5702 201.444C77.1307 203.639 77.1012 205.538 76.4994 205.692C75.8976 205.845 74.9654 204.187 74.4049 201.998C73.8444 199.809 73.8739 197.898 74.4757 197.75C75.0775 197.603 76.0097 199.249 76.5702 201.444Z" stroke="#263238" stroke-width="0.75" stroke-linecap="round" stroke-linejoin="round"/>
<path d="M71.626 196.647C71.5931 195.891 71.6187 195.133 71.7027 194.381" stroke="#263238" stroke-width="0.75" stroke-linecap="round" stroke-linejoin="round"/>
<path d="M76.2221 210.506C74.7467 208.287 73.589 205.872 72.7824 203.332C72.2311 201.533 71.8673 199.683 71.6968 197.809" stroke="#263238" stroke-width="0.75" stroke-linecap="round" stroke-linejoin="round"/>
<path d="M203.296 102.66C197.078 89.8275 194.393 88.7124 190.257 88.5C186.121 88.2876 176.357 87.0722 165.477 88.8127C165.477 88.8127 135.128 88.2817 111.646 102.507C87.1312 117.357 75.2014 130.402 73.5317 137.163C71.862 143.925 66.1626 161.542 63.4604 171.643C60.7582 181.744 58.9174 190.641 62.363 198.818C64.4457 203.762 66.6641 205.249 69.5138 205.226C69.0778 204.443 68.6935 203.633 68.3633 202.801C65.5313 195.786 65.8735 185.75 69.1067 185.101C72.3399 184.452 74.2692 191.172 76.2221 198.5C76.6097 200.115 77.1348 201.694 77.7915 203.22C82.6236 201.397 90.3644 197.32 100.654 193.083C99.6772 186.648 99.6553 180.103 100.589 173.661C102.111 163.589 108.548 161.365 111.351 167.495C113.669 172.546 114.531 183.85 114.761 187.661C118.891 186.239 122.348 185.301 124.478 185.172C124.478 185.172 159.689 177.218 185.643 176.581C211.598 175.944 224.583 175.324 224.583 175.324C224.583 175.324 209.515 115.469 203.296 102.66Z" fill="white"/>
<mask id="mask0_187_676" style="mask-type:luminance" maskUnits="userSpaceOnUse" x="60" y="87" width="165" height="119">
<path d="M203.296 102.66C197.078 89.8275 194.393 88.7124 190.257 88.5C186.121 88.2876 176.357 87.0722 165.477 88.8127C165.477 88.8127 135.128 88.2817 111.646 102.507C87.1312 117.357 75.2014 130.402 73.5317 137.163C71.862 143.925 66.1626 161.542 63.4604 171.643C60.7582 181.744 58.9174 190.641 62.363 198.818C64.4457 203.762 66.6641 205.249 69.5138 205.226C69.0778 204.443 68.6935 203.633 68.3633 202.801C65.5313 195.786 65.8735 185.75 69.1067 185.101C72.3399 184.452 74.2692 191.172 76.2221 198.5C76.6097 200.115 77.1348 201.694 77.7915 203.22C82.6236 201.397 90.3644 197.32 100.654 193.083C99.6772 186.648 99.6553 180.103 100.589 173.661C102.111 163.589 108.548 161.365 111.351 167.495C113.669 172.546 114.531 183.85 114.761 187.661C118.891 186.239 122.348 185.301 124.478 185.172C124.478 185.172 159.689 177.218 185.643 176.581C211.598 175.944 224.583 175.324 224.583 175.324C224.583 175.324 209.515 115.469 203.296 102.66Z" fill="white"/>
</mask>
<g mask="url(#mask0_187_676)">
<path d="M120.319 164.575C120.319 164.575 116.749 169.46 112.407 170.504C113.941 176.133 114.572 184.463 114.767 187.614C118.454 186.346 121.587 185.455 123.735 185.195C124.047 183.354 124.236 182.18 124.236 182.18L120.319 164.575Z" fill="#FF6600"/>
<path opacity="0.2" d="M76.3755 199.031C78.0157 199.196 79.1072 199.904 82.4407 199.072C88.3407 197.603 84.0986 186.216 93.8867 181.567C95.7868 180.608 97.8544 180.027 99.9755 179.856C100.063 177.772 100.26 175.694 100.565 173.631C100.825 171.605 101.424 169.636 102.335 167.808C99.6628 166.988 99.179 166.203 94.6242 168.368C84.8302 173.018 86.2993 185.012 80.4288 186.481C75.7442 187.661 75.4846 185.779 71.9269 186.652C73.5907 189.012 74.8769 193.608 76.1749 198.452C76.2752 198.671 76.3224 198.83 76.3755 199.031Z" fill="#FF6600"/>
<g style="mix-blend-mode:multiply">
<path opacity="0.2" d="M66.7408 188.948C63.9973 190.836 62.363 193.667 61.4308 196.057C61.6837 197 61.995 197.926 62.363 198.83C64.4457 203.774 66.6641 205.261 69.5138 205.237C69.0778 204.455 68.6935 203.645 68.3633 202.813C66.5638 198.346 66.08 192.665 66.7408 188.948Z" fill="#FF6600"/>
</g>
<g style="mix-blend-mode:multiply" opacity="0.2">
<path d="M190.257 88.5L189.189 88.4351C146.161 99.4445 128.655 151.305 122.632 176.298C122.956 178.782 123.31 181.219 123.693 183.59C124.425 183.449 123.918 185.171 124.478 185.142C124.478 185.142 159.689 177.189 185.643 176.552C211.598 175.914 224.583 175.295 224.583 175.295C224.583 175.295 209.515 115.469 203.296 102.66C197.078 89.8511 194.393 88.6888 190.257 88.5Z" fill="#FF6600"/>
</g>
</g>
<path d="M203.296 102.66C197.078 89.8275 194.393 88.7124 190.257 88.5C186.121 88.2876 176.357 87.0722 165.477 88.8127C165.477 88.8127 135.128 88.2817 111.646 102.507C87.1312 117.357 75.2014 130.402 73.5317 137.163C71.862 143.925 66.1626 161.542 63.4604 171.643C60.7582 181.744 58.9174 190.641 62.363 198.818C64.4457 203.762 66.6641 205.249 69.5138 205.226C69.0778 204.443 68.6935 203.633 68.3633 202.801C65.5313 195.786 65.8735 185.75 69.1067 185.101C72.3399 184.452 74.2692 191.172 76.2221 198.5C76.6097 200.115 77.1348 201.694 77.7915 203.22C82.6236 201.397 90.3644 197.32 100.654 193.083C99.6772 186.648 99.6553 180.103 100.589 173.661C102.111 163.589 108.548 161.365 111.351 167.495C113.669 172.546 114.531 183.85 114.761 187.661C118.891 186.239 122.348 185.301 124.478 185.172C124.478 185.172 159.689 177.218 185.643 176.581C211.598 175.944 224.583 175.324 224.583 175.324C224.583 175.324 209.515 115.469 203.296 102.66Z" stroke="#263238" stroke-linecap="round" stroke-linejoin="round"/>
<path opacity="0.2" d="M74.4993 167.418C74.9043 167.755 75.3973 167.969 75.92 168.035C76.4427 168.101 76.9734 168.016 77.4493 167.79C79.3078 167.047 79.4966 164.25 79.4966 164.25L82.2814 164.067L82.8419 155.329L76.7059 157.742C76.7059 157.742 75.0598 166.303 74.4993 167.418Z" fill="#FF6600"/>
<path d="M66.4517 192.971C64.6899 193.908 63.0241 195.014 61.478 196.275C61.7226 197.14 62.0181 197.989 62.363 198.818C64.4457 203.762 66.6641 205.249 69.5138 205.226C69.0778 204.443 68.6935 203.633 68.3633 202.801C67.1538 199.662 66.5067 196.335 66.4517 192.971Z" fill="#263238" stroke="#263238" stroke-width="0.75" stroke-linecap="round" stroke-linejoin="round"/>
<path d="M75.8504 188.098C75.6907 188.097 75.5342 188.053 75.3972 187.971C75.2602 187.889 75.1477 187.772 75.0716 187.632C74.9642 187.428 74.9411 187.19 75.0073 186.969C75.0735 186.749 75.2237 186.563 75.4256 186.452C75.5672 186.375 87.0486 179.26 96.5594 174.203C96.6621 174.149 96.7745 174.115 96.8902 174.104C97.006 174.093 97.1228 174.104 97.234 174.138C97.3452 174.172 97.4487 174.228 97.5384 174.302C97.6282 174.376 97.7025 174.467 97.7571 174.569C97.8117 174.672 97.8456 174.784 97.8568 174.9C97.8679 175.016 97.8562 175.133 97.8222 175.244C97.7883 175.355 97.7327 175.458 97.6588 175.548C97.5849 175.638 97.494 175.712 97.3913 175.767C87.8864 180.817 76.4109 187.927 76.2693 188.003C76.1401 188.071 75.9958 188.103 75.8504 188.098Z" fill="#263238" stroke="#263238" stroke-miterlimit="10"/>
<path d="M90.86 128.956L90.4529 139.087C90.3644 140.467 91.1668 141.134 92.2229 140.538L108.536 129.918C109.136 129.5 109.62 128.936 109.942 128.28C110.264 127.623 110.414 126.896 110.377 126.166L110.277 114.867C110.159 113.84 109.463 113.422 108.607 113.864C105.539 115.451 99.6156 120.82 92.5356 125.817C92.0559 126.198 91.6595 126.673 91.3713 127.213C91.083 127.753 90.909 128.346 90.86 128.956Z" fill="#FF6600" stroke="#263238" stroke-linecap="round" stroke-linejoin="round"/>
<path d="M131.34 110.135L133.015 135.505C133.059 136.238 133.251 136.953 133.58 137.609C133.91 138.265 134.369 138.846 134.931 139.318C135.492 139.79 136.144 140.143 136.846 140.355C137.549 140.566 138.287 140.633 139.016 140.55L195.373 133.234C196.149 133.144 196.897 132.887 197.564 132.481C198.232 132.074 198.803 131.527 199.238 130.878C199.673 130.229 199.963 129.493 200.086 128.721C200.209 127.949 200.163 127.16 199.951 126.408L192.836 101.25C192.499 100.054 191.759 99.0119 190.742 98.2991C189.725 97.5862 188.493 97.2468 187.254 97.3382C178.121 98.0108 156.214 99.9755 135.535 104.583C134.293 104.865 133.191 105.577 132.423 106.593C131.656 107.609 131.272 108.864 131.34 110.135Z" fill="#FF6600" stroke="#263238" stroke-linecap="round" stroke-linejoin="round"/>
<path d="M193.801 136.825C199.098 136.694 203.288 132.369 203.16 127.163C203.032 121.958 198.634 117.844 193.337 117.974C188.041 118.104 183.851 122.43 183.979 127.635C184.107 132.841 188.505 136.955 193.801 136.825Z" fill="#14A23C" stroke="#263238" stroke-width="0.75" stroke-linecap="round" stroke-linejoin="round"/>
<path d="M192.535 131.9H192.505C192.319 131.901 192.135 131.857 191.969 131.773C191.803 131.689 191.659 131.567 191.549 131.417L187.779 126.213C187.595 125.959 187.52 125.643 187.569 125.334C187.618 125.025 187.788 124.748 188.042 124.564C188.295 124.38 188.611 124.304 188.921 124.353C189.23 124.403 189.507 124.573 189.691 124.826L192.505 128.708L199.231 119.416C199.415 119.162 199.692 118.992 200.001 118.943C200.311 118.894 200.627 118.97 200.88 119.153C201.134 119.337 201.304 119.614 201.353 119.924C201.402 120.233 201.327 120.549 201.143 120.802L193.473 131.422C193.364 131.569 193.223 131.689 193.06 131.772C192.897 131.855 192.717 131.899 192.535 131.9Z" fill="white" stroke="#263238" stroke-linecap="round" stroke-linejoin="round"/>
<path d="M156.899 157.329C156.899 157.329 176.959 153.483 190.706 153.754L191.532 157.058C191.532 157.058 162.669 158.427 157.17 161.188L156.899 157.329Z" fill="#263238" stroke="#263238" stroke-width="0.75" stroke-linecap="round" stroke-linejoin="round"/>
<path d="M157.17 161.176L157.76 164.48C157.821 164.848 158.024 165.178 158.325 165.399C158.626 165.619 159.001 165.713 159.371 165.66C164.403 164.94 182.068 162.515 191.231 162.74C191.456 162.747 191.681 162.7 191.885 162.604C192.089 162.508 192.268 162.365 192.407 162.187C192.545 162.008 192.64 161.8 192.683 161.578C192.725 161.356 192.715 161.128 192.653 160.911L191.555 157.07" stroke="#263238" stroke-linecap="round" stroke-linejoin="round"/>
<path d="M83.9688 155.341L83.8567 141.712L84.5352 127.7C84.5403 127.566 84.5048 127.433 84.4334 127.32C84.362 127.206 84.258 127.117 84.135 127.063C84.012 127.01 83.8758 126.994 83.744 127.019C83.6122 127.045 83.4911 127.109 83.3965 127.204C80.8595 129.8 76.5171 133.729 75.2309 136.951C73.5612 141.122 71.5847 161.654 71.5847 161.654L83.9688 155.341Z" fill="#263238" stroke="#263238" stroke-width="0.75" stroke-linecap="round" stroke-linejoin="round"/>
<path d="M68.2571 152.604H66.2806C65.2737 152.604 64.4575 153.42 64.4575 154.427V164.61C64.4575 165.617 65.2737 166.433 66.2806 166.433H68.2571C69.264 166.433 70.0802 165.617 70.0802 164.61V154.427C70.0802 153.42 69.264 152.604 68.2571 152.604Z" fill="#263238" stroke="#263238" stroke-width="0.75" stroke-linecap="round" stroke-linejoin="round"/>
<path d="M69.502 143.093C70.4376 143.272 71.3514 143.551 72.2278 143.925C72.9545 144.282 73.6149 144.761 74.1807 145.341L77.1307 141.441C77.1307 141.441 72.806 139.629 71.9859 138.526L71.1717 137.417L69.502 143.093Z" fill="white"/>
<mask id="mask1_187_676" style="mask-type:luminance" maskUnits="userSpaceOnUse" x="69" y="137" width="9" height="9">
<path d="M69.502 143.093C70.4376 143.272 71.3514 143.551 72.2278 143.925C72.9545 144.282 73.6149 144.761 74.1807 145.341L77.1307 141.441C77.1307 141.441 72.806 139.629 71.9859 138.526L71.1717 137.417L69.502 143.093Z" fill="white"/>
</mask>
<g mask="url(#mask1_187_676)">
<g style="mix-blend-mode:multiply" opacity="0.5">
<path d="M71.98 138.526L71.2189 137.47L71.1304 137.529L69.502 143.075C69.502 143.075 69.8147 143.134 70.2572 143.24L74.4757 140.184C73.5537 139.781 72.7092 139.22 71.98 138.526Z" fill="#FF6600"/>
</g>
</g>
<path d="M69.502 143.093C70.4376 143.272 71.3514 143.551 72.2278 143.925C72.9545 144.282 73.6149 144.761 74.1807 145.341L77.1307 141.441C77.1307 141.441 72.806 139.629 71.9859 138.526L71.1717 137.417L69.502 143.093Z" stroke="#263238" stroke-width="0.75" stroke-linecap="round" stroke-linejoin="round"/>
<path d="M75.7324 139.783L72.1275 144.379L72.6172 145.942L78.1101 140.237L75.7324 139.783Z" fill="#FF6600" stroke="#263238" stroke-linecap="round" stroke-linejoin="round"/>
<path d="M69.9622 126.797C67.5255 124.909 61.1771 126.113 59.9322 130.585C59.1652 133.34 59.59 137.47 59.59 137.47L66.8234 135.936L67.4134 136.827C68.5934 138.597 71.1481 137.417 71.8089 136.827C72.1688 136.514 72.1452 135.594 72.0508 134.833L72.3399 134.768C72.3399 134.768 72.393 128.691 69.9622 126.797Z" fill="#263238" stroke="#263238" stroke-width="0.75" stroke-linecap="round" stroke-linejoin="round"/>
<path d="M67.26 135.393C64.0851 135.039 60.8714 135.345 57.82 136.29C53.1 137.871 52.3743 139.24 55.755 139.157C59.1357 139.075 67.26 135.393 67.26 135.393Z" fill="#263238" stroke="#263238" stroke-width="0.75" stroke-linecap="round" stroke-linejoin="round"/>
<path d="M61.4308 133.676C61.9815 133.676 62.4279 133.066 62.4279 132.313C62.4279 131.561 61.9815 130.951 61.4308 130.951C60.8801 130.951 60.4337 131.561 60.4337 132.313C60.4337 133.066 60.8801 133.676 61.4308 133.676Z" fill="#FF6600"/>
<path d="M83.8567 141.712C83.8567 141.712 77.3962 140.072 75.4079 141.582C73.4196 143.093 72.9122 145.588 73.5494 148.615C74.1866 151.642 75.7383 159.601 75.7383 159.601L83.9688 155.341L83.8567 141.712Z" fill="#263238" stroke="#263238" stroke-width="0.75" stroke-linecap="round" stroke-linejoin="round"/>
<path d="M73.6025 158.332C73.6025 158.332 73.2544 161.389 72.8473 161.819C72.4402 162.25 61.7022 153.229 61.0473 152.379C60.3924 151.53 60.8408 148.497 61.0473 147.547C61.2538 146.597 60.9057 146.078 59.8673 146.733C58.8289 147.388 59.1062 150.114 59.1062 150.114C59.1062 150.114 55.9379 149.353 55.3066 149.264C54.6753 149.176 54.1266 149.96 54.221 150.586C54.3154 151.211 55.1473 151.264 55.1473 151.264C54.9345 152.17 54.994 153.118 55.3184 153.99C55.873 155.135 56.4984 155.854 57.6784 156.138C58.8958 156.328 60.1285 156.403 61.36 156.362C61.36 156.362 66.847 161.589 68.44 163.542C70.033 165.495 73.3901 168.15 75.0598 167.672C76.7295 167.194 78.3225 158.857 78.3225 158.857L73.6025 158.332Z" fill="white"/>
<mask id="mask2_187_676" style="mask-type:luminance" maskUnits="userSpaceOnUse" x="54" y="146" width="25" height="22">
<path d="M73.6025 158.332C73.6025 158.332 73.2544 161.389 72.8473 161.819C72.4402 162.25 61.7022 153.229 61.0473 152.379C60.3924 151.53 60.8408 148.497 61.0473 147.547C61.2538 146.597 60.9057 146.078 59.8673 146.733C58.8289 147.388 59.1062 150.114 59.1062 150.114C59.1062 150.114 55.9379 149.353 55.3066 149.264C54.6753 149.176 54.1266 149.96 54.221 150.586C54.3154 151.211 55.1473 151.264 55.1473 151.264C54.9345 152.17 54.994 153.118 55.3184 153.99C55.873 155.135 56.4984 155.854 57.6784 156.138C58.8958 156.328 60.1285 156.403 61.36 156.362C61.36 156.362 66.847 161.589 68.44 163.542C70.033 165.495 73.3901 168.15 75.0598 167.672C76.7295 167.194 78.3225 158.857 78.3225 158.857L73.6025 158.332Z" fill="white"/>
</mask>
<g mask="url(#mask2_187_676)">
<g style="mix-blend-mode:multiply" opacity="0.5">
<path d="M72.8473 161.819L75.9861 162.864C76.0856 163.522 75.9465 164.194 75.5938 164.759C75.241 165.324 74.698 165.744 74.0627 165.943C72.6762 166.404 70.1864 164.828 68.4164 163.501L68.4695 163.566C70.092 165.525 73.4196 168.174 75.0893 167.696C76.759 167.218 78.352 158.881 78.352 158.881L73.6025 158.291C73.6025 158.291 73.2544 161.389 72.8473 161.819Z" fill="#FF6600"/>
</g>
</g>
<path d="M73.6025 158.332C73.6025 158.332 73.2544 161.389 72.8473 161.819C72.4402 162.25 61.7022 153.229 61.0473 152.379C60.3924 151.53 60.8408 148.497 61.0473 147.547C61.2538 146.597 60.9057 146.078 59.8673 146.733C58.8289 147.388 59.1062 150.114 59.1062 150.114C59.1062 150.114 55.9379 149.353 55.3066 149.264C54.6753 149.176 54.1266 149.96 54.221 150.586C54.3154 151.211 55.1473 151.264 55.1473 151.264C54.9345 152.17 54.994 153.118 55.3184 153.99C55.873 155.135 56.4984 155.854 57.6784 156.138C58.8958 156.328 60.1285 156.403 61.36 156.362C61.36 156.362 66.847 161.589 68.44 163.542C70.033 165.495 73.3901 168.15 75.0598 167.672C76.7295 167.194 78.3225 158.857 78.3225 158.857L73.6025 158.332Z" stroke="#263238" stroke-width="0.75" stroke-linecap="round" stroke-linejoin="round"/>
<path d="M62.8704 154.037L61.36 156.385L62.1329 156.911L63.6787 154.698L62.8704 154.037Z" fill="#263238" stroke="#263238" stroke-miterlimit="10"/>
<path d="M62.3512 156.25C62.677 156.25 62.9412 155.986 62.9412 155.66C62.9412 155.334 62.677 155.07 62.3512 155.07C62.0254 155.07 61.7612 155.334 61.7612 155.66C61.7612 155.986 62.0254 156.25 62.3512 156.25Z" fill="white" stroke="#263238" stroke-width="0.75" stroke-linecap="round" stroke-linejoin="round"/>
<path d="M60.9057 138.225C60.9057 138.225 61.2656 139.116 61.8674 140.68C62.4692 142.243 65.7024 145.541 67.2836 145.73C68.8648 145.919 70.7587 140.172 71.0596 138.986C71.1599 138.597 71.2602 137.972 71.2602 137.972C71.2602 137.972 73.2485 137.033 72.7883 135.901C72.3281 134.768 71.3959 134.249 70.9534 134.597C70.5109 134.945 70.4342 136.414 69.7734 136.426C69.1126 136.437 68.7527 136.231 68.1686 135.452C67.5845 134.673 61.5311 136.29 60.9057 138.225Z" fill="white"/>
<mask id="mask3_187_676" style="mask-type:luminance" maskUnits="userSpaceOnUse" x="60" y="134" width="13" height="12">
<path d="M60.9057 138.225C60.9057 138.225 61.2656 139.116 61.8674 140.68C62.4692 142.243 65.7024 145.541 67.2836 145.73C68.8648 145.919 70.7587 140.172 71.0596 138.986C71.1599 138.597 71.2602 137.972 71.2602 137.972C71.2602 137.972 73.2485 137.033 72.7883 135.901C72.3281 134.768 71.3959 134.249 70.9534 134.597C70.5109 134.945 70.4342 136.414 69.7734 136.426C69.1126 136.437 68.7527 136.231 68.1686 135.452C67.5845 134.673 61.5311 136.29 60.9057 138.225Z" fill="white"/>
</mask>
<g mask="url(#mask3_187_676)">
<path opacity="0.5" d="M68.1568 135.452C67.5668 134.679 61.5311 136.296 60.9057 138.225L61.2479 139.098C63.5551 137.707 66.0623 136.678 68.6819 136.048C68.4862 135.869 68.3102 135.669 68.1568 135.452Z" fill="#FF6600"/>
<g style="mix-blend-mode:multiply">
<path opacity="0.5" d="M72.7116 135.741C72.2278 134.727 71.3723 134.266 70.9416 134.597C70.6716 134.949 70.4714 135.349 70.3516 135.777C71.1353 135.689 71.9256 135.677 72.7116 135.741Z" fill="#FF6600"/>
</g>
</g>
<path d="M60.9057 138.225C60.9057 138.225 61.2656 139.116 61.8674 140.68C62.4692 142.243 65.7024 145.541 67.2836 145.73C68.8648 145.919 70.7587 140.172 71.0596 138.986C71.1599 138.597 71.2602 137.972 71.2602 137.972C71.2602 137.972 73.2485 137.033 72.7883 135.901C72.3281 134.768 71.3959 134.249 70.9534 134.597C70.5109 134.945 70.4342 136.414 69.7734 136.426C69.1126 136.437 68.7527 136.231 68.1686 135.452C67.5845 134.673 61.5311 136.29 60.9057 138.225Z" stroke="#263238" stroke-width="0.75" stroke-linecap="round" stroke-linejoin="round"/>
<path d="M63.0474 138.65C63.1536 139.01 63.1182 139.34 62.9766 139.382C62.835 139.423 62.6285 139.163 62.5223 138.792C62.4161 138.42 62.4515 138.101 62.5931 138.06C62.7347 138.019 62.9412 138.302 63.0474 138.65Z" fill="#263238" stroke="#263238" stroke-miterlimit="10"/>
<path d="M61.95 137.647C62.776 137.411 63.13 138.03 63.2303 138.603L63.3837 139.281L63.897 141.907L64.6758 141.576" stroke="#263238" stroke-width="0.5" stroke-linecap="round" stroke-linejoin="round"/>
<path d="M65.313 137.848C65.4924 137.651 65.7158 137.499 65.9649 137.405C66.214 137.31 66.4819 137.276 66.7467 137.305" stroke="#263238" stroke-width="0.5" stroke-linecap="round" stroke-linejoin="round"/>
<path d="M65.9974 136.213C65.6617 136.283 65.3537 136.45 65.1107 136.692C64.8677 136.934 64.7002 137.241 64.6286 137.576" stroke="#263238" stroke-width="0.5" stroke-linecap="round" stroke-linejoin="round"/>
<path d="M65.3779 142.426C65.3779 142.426 67.0889 142.084 67.2246 140.857" stroke="#263238" stroke-width="0.5" stroke-linecap="round" stroke-linejoin="round"/>
<path d="M79.9037 162.757L71.2661 160.35C71.2661 160.35 72.0272 145.6 73.3606 143.105C75.4374 139.228 80.1987 140.975 81.0955 145.848C81.9333 150.45 79.9037 162.757 79.9037 162.757Z" fill="#FF6600" stroke="#263238" stroke-linecap="round" stroke-linejoin="round"/>
<path d="M71.4726 158.71C71.4726 158.71 76.1926 159.796 79.0659 160.74" stroke="#263238" stroke-width="0.5" stroke-linecap="round" stroke-linejoin="round"/>
<path d="M78.9479 140.526C78.9479 140.526 81.7563 140.745 83.5912 142.255" stroke="#FF6600" stroke-width="0.5" stroke-linecap="round" stroke-linejoin="round"/>
<path d="M128.437 178.257C128.437 178.257 115.858 182.694 114.708 183.903C113.557 185.113 113.675 189.833 116.389 192.128C119.103 194.423 138.449 189.219 152.279 187.703C166.109 186.186 196.47 183.956 208.86 183.354C221.25 182.752 226.884 184.387 227.97 180.522C229.056 176.658 228.92 172.528 226.56 171.69C224.2 170.852 181.201 163.967 128.437 178.257Z" fill="#263238" stroke="#263238" stroke-width="0.75" stroke-linecap="round" stroke-linejoin="round"/>
<path d="M113.811 186.481C113.811 186.481 114.401 191.597 117.546 192.381C120.69 193.166 158.061 186.086 180.086 185.301C202.11 184.517 221.386 183.927 221.386 183.927" stroke="white" stroke-width="0.5" stroke-linecap="round" stroke-linejoin="round"/>
<path d="M132.066 189.077C146.674 185.537 176.723 180.534 227.286 181.956" stroke="white" stroke-width="0.5" stroke-linecap="round" stroke-linejoin="round"/>
<path d="M120.089 192.192C120.089 192.192 123.446 191.378 128.549 189.986" stroke="white" stroke-width="0.5" stroke-linecap="round" stroke-linejoin="round"/>
<path d="M123.168 192.777C123.327 194.97 123.268 197.174 122.991 199.355" stroke="white" stroke-width="0.5" stroke-linecap="round" stroke-linejoin="round"/>
<path d="M122.631 98.4297C122.631 98.4297 119.817 101.728 119.599 104.684" stroke="#263238" stroke-width="0.75" stroke-linecap="round" stroke-linejoin="round"/>
<path d="M119.304 107.067C119.304 107.067 117.186 140.762 122.791 176.622" stroke="#263238" stroke-width="0.75" stroke-linecap="round" stroke-linejoin="round"/>
<path d="M119.971 146.001C119.971 146.001 115.398 147.594 115.339 149.659C115.186 155.211 115.77 167.059 116.979 168.209C118.189 169.359 121.947 166.315 121.947 166.315C121.947 166.315 127.257 166.775 127.847 165.583C128.437 164.392 126.225 147.618 125.894 146.155C125.564 144.692 119.971 146.001 119.971 146.001Z" fill="#FF6600" stroke="#263238" stroke-linecap="round" stroke-linejoin="round"/>
<path d="M215.48 153.99C216.67 154.571 217.963 154.912 219.285 154.993C217.822 149.494 216.164 143.37 214.453 137.258C212.907 137.151 210.913 137.151 210.954 137.848C210.984 139.039 213.987 153.129 215.48 153.99Z" fill="#FF6600" stroke="#263238" stroke-linecap="round" stroke-linejoin="round"/>
<path d="M119.316 147.736C119.316 147.736 119.516 158.356 120.301 162.486" stroke="#263238" stroke-width="0.75" stroke-linecap="round" stroke-linejoin="round"/>
<path d="M174.469 150.19C174.469 150.19 200.795 145.948 231.469 151.37" stroke="#263238" stroke-linecap="round" stroke-linejoin="round"/>
<path d="M254.614 166.823C256.426 167.365 258.208 167.938 259.924 168.551" stroke="#263238" stroke-linecap="round" stroke-linejoin="round"/>
<path d="M207.35 158.81C207.35 158.81 228.224 160.079 248.213 165.076" stroke="#263238" stroke-linecap="round" stroke-linejoin="round"/>
<path d="M143.818 207.42C161.006 204.794 178.468 204.482 195.738 206.494" stroke="#263238" stroke-linecap="round" stroke-linejoin="round"/>
<path d="M141.659 204.642C141.659 204.642 154.014 203.096 158.031 202.789" stroke="#263238" stroke-linecap="round" stroke-linejoin="round"/>
<path d="M224.401 90.0517C226.171 90.3054 227.941 90.6417 229.545 91.0252" stroke="#263238" stroke-linecap="round" stroke-linejoin="round"/>
<path d="M198.966 89.4676C206.235 88.9541 213.534 89.0034 220.796 89.6151" stroke="#263238" stroke-linecap="round" stroke-linejoin="round"/>
<path d="M103.775 160.94C103.775 160.94 121.404 152.592 146.91 150.273" stroke="#263238" stroke-linecap="round" stroke-linejoin="round"/>
<path d="M133.464 145.63C133.464 145.63 144.137 142.851 160.374 141.919" stroke="#263238" stroke-linecap="round" stroke-linejoin="round"/>
<path d="M103.486 204.577C105.629 208.414 109.086 211.348 113.221 212.837" stroke="#263238" stroke-linecap="round" stroke-linejoin="round"/>
<path d="M102.896 207.232C102.896 207.232 105.551 211.362 109.091 213.132" stroke="#263238" stroke-linecap="round" stroke-linejoin="round"/>
<path d="M189.921 192.482C189.921 192.482 191.691 200.742 198.771 204.282" stroke="#263238" stroke-linecap="round" stroke-linejoin="round"/>
<path d="M190.806 199.857C192.209 201.911 194.147 203.544 196.411 204.577" stroke="#263238" stroke-linecap="round" stroke-linejoin="round"/>
<path d="M74.0804 215.763C74.0804 215.763 75.8504 218.713 82.0454 218.713" stroke="#263238" stroke-linecap="round" stroke-linejoin="round"/>
<path d="M72.9004 217.533C75.1574 219.41 77.9393 220.543 80.8654 220.778" stroke="#263238" stroke-linecap="round" stroke-linejoin="round"/>
<path d="M152.657 210.252C136.987 211.105 121.433 213.432 106.2 217.203L106.566 217.751C106.566 217.751 119.546 214.996 143.535 220.896C167.525 226.796 169.106 231.516 195.455 231.516C221.805 231.516 247.375 225.227 247.375 225.227L244.177 223.457C220.518 213.444 188.092 208.27 152.657 210.252Z" fill="#FF6600"/>
<path opacity="0.5" d="M152.657 210.252C136.987 211.105 121.433 213.432 106.2 217.203L106.566 217.751C106.566 217.751 119.546 214.996 143.535 220.896C167.525 226.796 169.106 231.516 195.455 231.516C221.805 231.516 247.375 225.227 247.375 225.227L244.177 223.457C220.518 213.444 188.092 208.27 152.657 210.252Z" fill="white"/>
<path d="M94.931 223.752C94.931 223.752 125.906 219.032 152.751 237.027" stroke="#263238" stroke-linecap="round" stroke-linejoin="round"/>
<path d="M127.381 230.537C127.381 230.537 140.066 234.372 147.736 242.632" stroke="#263238" stroke-linecap="round" stroke-linejoin="round"/>
<path d="M202.311 215.492C202.311 215.492 220.306 217.262 236.531 226.997" stroke="#263238" stroke-linecap="round" stroke-linejoin="round"/>
<path d="M258.42 230.737C261.66 232.72 264.745 234.947 267.648 237.398" stroke="#263238" stroke-linecap="round" stroke-linejoin="round"/>
<path d="M47.3239 244.655C68.8294 226.365 107.687 212.795 152.657 210.252C193.703 207.922 230.725 215.273 254.727 228.542" stroke="#263238" stroke-linecap="round" stroke-linejoin="round"/>
<path d="M178.416 215.197C178.416 215.197 197.001 216.082 209.391 220.212" stroke="#263238" stroke-linecap="round" stroke-linejoin="round"/>
<path d="M94.1522 75.1306C94.1522 75.1306 93.5622 66.9709 81.6147 66.6759C69.6672 66.3809 72.865 74.8415 69.6613 76.8829C66.4576 78.9243 65.5785 75.7029 62.3689 77.7561C59.1593 79.8093 60.5989 83.8803 57.997 84.4644C55.3951 85.0485 51.8728 81.8389 48.6691 83.8744C45.4654 85.9099 45.4595 87.6622 44.0022 87.6622C42.5449 87.6622 39.6303 86.4822 37.8839 87.6622C36.1375 88.8422 34.0902 90.27 34.0902 90.27H107.84C107.84 90.27 108.713 87.6445 105.48 85.8981C102.247 84.1517 100.813 85.6031 99.651 84.1281C98.4887 82.6531 102.896 78.9243 94.1522 75.1306Z" fill="#FF6600"/>
<path d="M137.972 43.9019C137.972 43.9019 137.618 38.9931 130.431 38.8161C123.245 38.6391 125.169 43.7308 123.239 44.958C121.31 46.1852 120.785 44.2559 118.855 45.4831C116.926 46.7103 117.805 49.1647 116.224 49.5128C114.643 49.8609 112.542 47.9375 110.613 49.1647C108.684 50.3919 108.684 51.4421 107.805 51.4421C106.926 51.4421 105.173 50.7459 104.123 51.4421C103.073 52.1383 101.846 53.0233 101.846 53.0233H146.214C146.214 53.0233 146.739 51.4421 144.81 50.3919C142.88 49.3417 142.007 50.2149 141.305 49.3417C140.603 48.4685 143.234 46.1852 137.972 43.9019Z" fill="#FF6600"/>
<path opacity="0.7" d="M94.1522 75.1306C94.1522 75.1306 93.5622 66.9709 81.6147 66.6759C69.6672 66.3809 72.865 74.8415 69.6613 76.8829C66.4576 78.9243 65.5785 75.7029 62.3689 77.7561C59.1593 79.8093 60.5989 83.8803 57.997 84.4644C55.3951 85.0485 51.8728 81.8389 48.6691 83.8744C45.4654 85.9099 45.4595 87.6622 44.0022 87.6622C42.5449 87.6622 39.6303 86.4822 37.8839 87.6622C36.1375 88.8422 34.0902 90.27 34.0902 90.27H107.84C107.84 90.27 108.713 87.6445 105.48 85.8981C102.247 84.1517 100.813 85.6031 99.651 84.1281C98.4887 82.6531 102.896 78.9243 94.1522 75.1306Z" fill="white"/>
<path opacity="0.8" d="M137.972 43.9019C137.972 43.9019 137.618 38.9931 130.431 38.8161C123.245 38.6391 125.169 43.7308 123.239 44.958C121.31 46.1852 120.785 44.2559 118.855 45.4831C116.926 46.7103 117.805 49.1647 116.224 49.5128C114.643 49.8609 112.542 47.9375 110.613 49.1647C108.684 50.3919 108.684 51.4421 107.805 51.4421C106.926 51.4421 105.173 50.7459 104.123 51.4421C103.073 52.1383 101.846 53.0233 101.846 53.0233H146.214C146.214 53.0233 146.739 51.4421 144.81 50.3919C142.88 49.3417 142.007 50.2149 141.305 49.3417C140.603 48.4685 143.234 46.1852 137.972 43.9019Z" fill="white"/>
</svg>
