<svg width="28" height="28" viewBox="0 0 28 28" fill="none" xmlns="http://www.w3.org/2000/svg">
<path d="M13.6965 6.84824C13.3332 6.84824 12.9848 6.99254 12.728 7.2494C12.4711 7.50626 12.3268 7.85463 12.3268 8.21788V13.6965C12.3268 14.0597 12.4711 14.4081 12.728 14.665C12.9848 14.9218 13.3332 15.0661 13.6965 15.0661C14.0597 15.0661 14.4081 14.9218 14.665 14.665C14.9218 14.4081 15.0661 14.0597 15.0661 13.6965V8.21788C15.0661 7.85463 14.9218 7.50626 14.665 7.2494C14.4081 6.99254 14.0597 6.84824 13.6965 6.84824ZM13.6965 17.8054C13.4256 17.8054 13.1608 17.8857 12.9355 18.0362C12.7103 18.1867 12.5347 18.4006 12.4311 18.6509C12.3274 18.9012 12.3003 19.1766 12.3531 19.4423C12.406 19.708 12.5364 19.952 12.728 20.1435C12.9195 20.3351 13.1636 20.4655 13.4293 20.5184C13.695 20.5712 13.9703 20.5441 14.2206 20.4405C14.4709 20.3368 14.6848 20.1612 14.8353 19.936C14.9858 19.7108 15.0661 19.446 15.0661 19.1751C15.0661 18.8118 14.9218 18.4634 14.665 18.2066C14.4081 17.9497 14.0597 17.8054 13.6965 17.8054ZM26.9957 7.61524L19.7777 0.397198C19.5152 0.146917 19.1679 0.00504508 18.8053 0H8.58769C8.22505 0.00504508 7.87771 0.146917 7.61524 0.397198L0.397198 7.61524C0.146917 7.87771 0.00504508 8.22505 0 8.58769V18.8053C0.00504508 19.1679 0.146917 19.5152 0.397198 19.7777L7.61524 26.9957C7.87771 27.246 8.22505 27.3879 8.58769 27.3929H18.8053C19.1679 27.3879 19.5152 27.246 19.7777 26.9957L26.9957 19.7777C27.246 19.5152 27.3879 19.1679 27.3929 18.8053V8.58769C27.3879 8.22505 27.246 7.87771 26.9957 7.61524ZM24.6537 18.23L18.23 24.6537H9.16294L2.73929 18.23V9.16294L9.16294 2.73929H18.23L24.6537 9.16294V18.23Z" fill="white"/>
</svg>
