<svg width="24" height="25" viewBox="0 0 24 25" fill="none"
    xmlns="http://www.w3.org/2000/svg">
    <path d="M10.9454 21.8908H3.64847C3.32592 21.8908 3.01659 21.7627 2.78852 21.5346C2.56044 21.3065 2.43231 20.9972 2.43231 20.6747V3.64847C2.43231 3.32592 2.56044 3.01659 2.78852 2.78852C3.01659 2.56044 3.32592 2.43231 3.64847 2.43231H9.72925V6.08078C9.72925 7.04841 10.1136 7.97642 10.7979 8.66064C11.4821 9.34486 12.4101 9.72925 13.3777 9.72925H17.0262V15.81C17.0262 16.1326 17.1543 16.4419 17.3824 16.67C17.6105 16.8981 17.9198 17.0262 18.2423 17.0262C18.5649 17.0262 18.8742 16.8981 19.1023 16.67C19.3304 16.4419 19.4585 16.1326 19.4585 15.81V8.51309C19.4585 8.51309 19.4585 8.51309 19.4585 8.44012C19.4458 8.3284 19.4214 8.21833 19.3855 8.11176V8.00231C19.3271 7.87726 19.2491 7.76232 19.1545 7.66178L11.8575 0.364847C11.757 0.270249 11.642 0.192251 11.517 0.133777C11.4768 0.126735 11.4356 0.126735 11.3954 0.133777C11.2771 0.0705407 11.15 0.0254444 11.0184 0H3.64847C2.68083 0 1.75283 0.384391 1.06861 1.06861C0.384391 1.75283 0 2.68083 0 3.64847V20.6747C0 21.6423 0.384391 22.5703 1.06861 23.2545C1.75283 23.9387 2.68083 24.3231 3.64847 24.3231H10.9454C11.2679 24.3231 11.5773 24.195 11.8054 23.9669C12.0334 23.7388 12.1616 23.4295 12.1616 23.107C12.1616 22.7844 12.0334 22.4751 11.8054 22.247C11.5773 22.0189 11.2679 21.8908 10.9454 21.8908ZM12.1616 4.14709L15.3114 7.29694H13.3777C13.0552 7.29694 12.7458 7.1688 12.5178 6.94073C12.2897 6.71266 12.1616 6.40332 12.1616 6.08078V4.14709ZM6.08078 14.5939H13.3777C13.7003 14.5939 14.0096 14.4657 14.2377 14.2377C14.4657 14.0096 14.5939 13.7003 14.5939 13.3777C14.5939 13.0552 14.4657 12.7458 14.2377 12.5178C14.0096 12.2897 13.7003 12.1616 13.3777 12.1616H6.08078C5.75823 12.1616 5.4489 12.2897 5.22083 12.5178C4.99275 12.7458 4.86462 13.0552 4.86462 13.3777C4.86462 13.7003 4.99275 14.0096 5.22083 14.2377C5.4489 14.4657 5.75823 14.5939 6.08078 14.5939ZM10.9454 17.0262H6.08078C5.75823 17.0262 5.4489 17.1543 5.22083 17.3824C4.99275 17.6105 4.86462 17.9198 4.86462 18.2423C4.86462 18.5649 4.99275 18.8742 5.22083 19.1023C5.4489 19.3304 5.75823 19.4585 6.08078 19.4585H10.9454C11.2679 19.4585 11.5773 19.3304 11.8054 19.1023C12.0334 18.8742 12.1616 18.5649 12.1616 18.2423C12.1616 17.9198 12.0334 17.6105 11.8054 17.3824C11.5773 17.1543 11.2679 17.0262 10.9454 17.0262ZM6.08078 9.72925H7.29694C7.61948 9.72925 7.92881 9.60112 8.15689 9.37304C8.38496 9.14497 8.51309 8.83564 8.51309 8.51309C8.51309 8.19055 8.38496 7.88121 8.15689 7.65314C7.92881 7.42507 7.61948 7.29694 7.29694 7.29694H6.08078C5.75823 7.29694 5.4489 7.42507 5.22083 7.65314C4.99275 7.88121 4.86462 8.19055 4.86462 8.51309C4.86462 8.83564 4.99275 9.14497 5.22083 9.37304C5.4489 9.60112 5.75823 9.72925 6.08078 9.72925ZM22.7543 17.3789C22.6412 17.2649 22.5067 17.1744 22.3585 17.1127C22.2103 17.0509 22.0514 17.0191 21.8908 17.0191C21.7303 17.0191 21.5713 17.0509 21.4231 17.1127C21.2749 17.1744 21.1404 17.2649 21.0273 17.3789L17.0262 21.3922L15.4573 19.8112C15.3439 19.6978 15.2093 19.6078 15.0612 19.5465C14.913 19.4851 14.7542 19.4535 14.5939 19.4535C14.4335 19.4535 14.2747 19.4851 14.1266 19.5465C13.9784 19.6078 13.8438 19.6978 13.7304 19.8112C13.617 19.9246 13.5271 20.0592 13.4657 20.2073C13.4043 20.3555 13.3727 20.5143 13.3727 20.6747C13.3727 20.835 13.4043 20.9938 13.4657 21.142C13.5271 21.2901 13.617 21.4247 13.7304 21.5381L16.1627 23.9704C16.2758 24.0844 16.4103 24.1749 16.5585 24.2366C16.7067 24.2984 16.8656 24.3302 17.0262 24.3302C17.1867 24.3302 17.3457 24.2984 17.4939 24.2366C17.6421 24.1749 17.7766 24.0844 17.8897 23.9704L22.7543 19.1058C22.8683 18.9928 22.9587 18.8582 23.0205 18.71C23.0822 18.5618 23.114 18.4029 23.114 18.2423C23.114 18.0818 23.0822 17.9228 23.0205 17.7746C22.9587 17.6264 22.8683 17.4919 22.7543 17.3789Z" fill="white"/>
</svg>
