<svg width="23" height="25" viewBox="0 0 23 25" fill="none" xmlns="http://www.w3.org/2000/svg">
<path d="M22.9041 16.916C22.8394 16.7655 22.7486 16.6269 22.6357 16.5062L18.8013 12.7802C18.5606 12.5463 18.2342 12.4149 17.8938 12.4149C17.5535 12.4149 17.2271 12.5463 16.9864 12.7802C16.7457 13.0141 16.6105 13.3313 16.6105 13.662C16.6105 13.9927 16.7457 14.3099 16.9864 14.5438L18.6479 16.146H11.5032C11.1642 16.146 10.8391 16.2769 10.5994 16.5098C10.3597 16.7427 10.2251 17.0586 10.2251 17.388C10.2251 17.7174 10.3597 18.0333 10.5994 18.2662C10.8391 18.4991 11.1642 18.63 11.5032 18.63H18.6479L16.9864 20.2322C16.8666 20.3476 16.7715 20.485 16.7066 20.6364C16.6417 20.7877 16.6083 20.95 16.6083 21.114C16.6083 21.278 16.6417 21.4403 16.7066 21.5916C16.7715 21.743 16.8666 21.8804 16.9864 21.9958C17.1052 22.1122 17.2466 22.2046 17.4023 22.2677C17.5581 22.3307 17.7251 22.3632 17.8938 22.3632C18.0626 22.3632 18.2296 22.3307 18.3854 22.2677C18.5411 22.2046 18.6825 22.1122 18.8013 21.9958L22.6357 18.2698C22.7541 18.1532 22.8456 18.0135 22.9041 17.86C23.032 17.5576 23.032 17.2184 22.9041 16.916ZM14.0595 22.356H3.8344C3.49541 22.356 3.17032 22.2251 2.93062 21.9922C2.69092 21.7593 2.55626 21.4434 2.55626 21.114V3.726C2.55626 3.3966 2.69092 3.08069 2.93062 2.84777C3.17032 2.61485 3.49541 2.484 3.8344 2.484H10.2251V6.21C10.2251 7.1982 10.629 8.14592 11.3481 8.84468C12.0672 9.54344 13.0425 9.936 14.0595 9.936H19.172C19.4243 9.93478 19.6706 9.861 19.8799 9.72396C20.0891 9.58693 20.252 9.39277 20.3479 9.16596C20.4457 8.93978 20.4725 8.69049 20.4247 8.44956C20.3769 8.20862 20.2568 7.98683 20.0795 7.81218L12.4107 0.36018C12.305 0.263572 12.1842 0.183917 12.0528 0.1242H11.9378L11.5799 0H3.8344C2.81745 0 1.84216 0.39256 1.12307 1.09132C0.40398 1.79008 0 2.7378 0 3.726V21.114C0 22.1022 0.40398 23.0499 1.12307 23.7487C1.84216 24.4474 2.81745 24.84 3.8344 24.84H14.0595C14.3984 24.84 14.7235 24.7091 14.9632 24.4762C15.2029 24.2433 15.3376 23.9274 15.3376 23.598C15.3376 23.2686 15.2029 22.9527 14.9632 22.7198C14.7235 22.4869 14.3984 22.356 14.0595 22.356ZM12.7813 4.23522L16.0917 7.452H14.0595C13.7205 7.452 13.3954 7.32115 13.1557 7.08823C12.916 6.85531 12.7813 6.5394 12.7813 6.21V4.23522Z" fill="white"/>
</svg>
